<svg width="196" height="65" viewBox="0 0 196 65" fill="none" xmlns="http://www.w3.org/2000/svg">
<path d="M24 56C23.3 56 22.6 55.8793 21.9 55.6378C21.2 55.3963 20.575 55.0341 20.025 54.5511C16.775 51.6533 13.9 48.8279 11.4 46.075C8.9 43.3221 6.813 40.6542 5.139 38.0713C3.463 35.4865 2.188 32.9992 1.314 30.6095C0.440001 28.2197 0.002 25.9372 0 23.762C0 16.5175 2.413 10.746 7.239 6.44761C12.065 2.1492 17.652 0 24 0C30.35 0 35.938 2.1492 40.764 6.44761C45.59 10.746 48.002 16.5175 48 23.762C48 25.9353 47.562 28.2178 46.686 30.6095C45.81 33.0011 44.535 35.4884 42.861 38.0713C41.187 40.6542 39.1 43.3221 36.6 46.075C34.1 48.8279 31.225 51.6533 27.975 54.5511C27.425 55.0341 26.8 55.3963 26.1 55.6378C25.4 55.8793 24.7 56 24 56Z" fill="#056ABB"/>
<path d="M17.8094 11.4406C20.1034 10.8152 22.5411 10.2535 24 10.2535C25.4589 10.2535 27.8966 10.8152 30.1906 11.4406C32.5375 12.0765 34.9034 12.829 36.2946 13.2847C36.8762 13.4773 37.3919 13.8305 37.7823 14.3037C38.1728 14.7769 38.4222 15.3509 38.5019 15.9598C39.762 25.4498 36.8379 32.483 33.2902 37.1358C31.7857 39.1262 29.9919 40.8789 27.9685 42.3355C27.2689 42.8395 26.5276 43.2827 25.7527 43.6603C25.1607 43.9401 24.5243 44.169 24 44.169C23.4757 44.169 22.8414 43.9401 22.2473 43.6603C21.4724 43.2827 20.7311 42.8395 20.0315 42.3355C18.0082 40.8789 16.2143 39.1261 14.7098 37.1358C11.1621 32.483 8.23801 25.4498 9.49812 15.9598C9.57781 15.3509 9.8272 14.7769 10.2177 14.3037C10.6081 13.8305 11.1238 13.4773 11.7054 13.2847C13.725 12.6208 15.7602 12.0059 17.8094 11.4406Z" fill="white"/>
<path d="M24 15.3803C22.8861 15.3803 21.8178 15.8366 21.0302 16.6489C20.2425 17.4612 19.8 18.5629 19.8 19.7116C19.8 20.8604 20.2425 21.9621 21.0302 22.7743C21.8178 23.5866 22.8861 24.043 24 24.043C25.1139 24.043 26.1822 23.5866 26.9698 22.7743C27.7575 21.9621 28.2 20.8604 28.2 19.7116C28.2 18.5629 27.7575 17.4612 26.9698 16.6489C26.1822 15.8366 25.1139 15.3803 24 15.3803ZM29.25 25.8477H18.75C17.9146 25.8477 17.1134 26.1899 16.5226 26.7992C15.9319 27.4084 15.6 28.2346 15.6 29.0962C15.6 31.5131 16.5639 33.4492 18.1452 34.7594C19.7013 36.048 21.7887 36.6761 24 36.6761C26.2113 36.6761 28.2987 36.048 29.8548 34.7594C31.434 33.4492 32.4 31.5131 32.4 29.0962C32.4 28.2346 32.0681 27.4084 31.4774 26.7992C30.8866 26.1899 30.0854 25.8477 29.25 25.8477Z" fill="#056ABB"/>
<path d="M93.8143 25.7682C93.8143 25.7682 93.831 25.8182 93.8643 25.9182C93.931 25.9848 93.9976 26.0848 94.0643 26.2182C94.131 26.3182 94.181 26.4182 94.2143 26.5182C94.281 26.6182 94.2976 26.6682 94.2643 26.6682C93.4976 26.9682 92.7476 27.3015 92.0143 27.6682C91.3143 28.0348 90.5643 28.3182 89.7643 28.5182C88.931 28.7515 88.1476 28.8182 87.4143 28.7182C86.481 28.6182 85.6143 28.3182 84.8143 27.8182C84.6143 27.6848 84.4143 27.5348 84.2143 27.3682C84.0476 27.1682 83.881 26.9848 83.7143 26.8182L83.1643 26.2682C83.031 26.6348 82.831 27.0015 82.5643 27.3682C82.7643 27.6015 82.9476 27.8348 83.1143 28.0682C83.3143 28.2682 83.4976 28.4848 83.6643 28.7182C83.9976 29.1515 84.2976 29.6015 84.5643 30.0682C84.8643 30.5015 85.1476 30.9515 85.4143 31.4182C85.681 31.8848 85.931 32.3515 86.1643 32.8182C86.3976 33.2848 86.631 33.7682 86.8643 34.2682C87.031 34.6682 87.181 35.0848 87.3143 35.5182C87.481 35.9182 87.5976 36.3348 87.6643 36.7682C87.8976 37.9682 87.7976 39.1682 87.3643 40.3682C86.931 41.5348 86.181 42.4348 85.1143 43.0682C84.4476 43.4348 83.7476 43.6848 83.0143 43.8182C82.3143 43.9182 81.5976 43.9348 80.8643 43.8682C79.8643 43.8015 78.881 43.6015 77.9143 43.2682C76.9476 42.9015 76.031 42.4682 75.1643 41.9682C74.231 41.4348 73.3476 40.8348 72.5143 40.1682C71.7143 39.4682 70.9476 38.7348 70.2143 37.9682C69.3476 37.0682 68.531 36.1348 67.7643 35.1682C66.9976 34.2015 66.2476 33.2015 65.5143 32.1682C64.7476 31.1015 63.9976 30.0182 63.2643 28.9182C62.531 27.7848 61.8143 26.6515 61.1143 25.5182C60.981 25.3515 60.8643 25.1682 60.7643 24.9682C60.6643 24.7682 60.5476 24.5848 60.4143 24.4182C60.3476 24.2848 60.2976 24.2015 60.2643 24.1682C60.0976 23.9682 59.9643 23.7515 59.8643 23.5182C59.731 23.3182 59.5976 23.1182 59.4643 22.9182C59.331 22.7182 59.1976 22.5182 59.0643 22.3182C58.9976 22.2515 58.9476 22.1682 58.9143 22.0682C58.8476 21.9682 58.781 21.8848 58.7143 21.8182C58.7143 21.7848 58.6976 21.7515 58.6643 21.7182C57.6976 20.3515 56.9143 19.0015 56.3143 17.6682C56.2476 17.5015 56.181 17.3515 56.1143 17.2182C55.981 16.9182 55.9643 16.7515 56.0643 16.7182C56.131 16.6515 56.2643 16.7515 56.4643 17.0182C56.5643 17.1515 56.6476 17.2848 56.7143 17.4182C56.9143 17.6848 57.1143 17.9682 57.3143 18.2682C57.481 18.5348 57.6476 18.8015 57.8143 19.0682C58.081 19.4682 58.3476 19.8848 58.6143 20.3182C58.881 20.7182 59.1476 21.1182 59.4143 21.5182C59.6143 21.8515 59.8143 22.1682 60.0143 22.4682C60.2143 22.7682 60.4143 23.0848 60.6143 23.4182C60.6476 23.4515 60.6643 23.4848 60.6643 23.5182C60.6643 23.5182 60.681 23.5348 60.7143 23.5682C60.781 23.7015 60.8476 23.8182 60.9143 23.9182C60.981 24.0182 61.0476 24.1182 61.1143 24.2182C61.4143 24.6848 61.7143 25.1515 62.0143 25.6182C62.3143 26.0848 62.631 26.5515 62.9643 27.0182C62.9976 27.0515 63.0476 27.1348 63.1143 27.2682C63.181 27.3682 63.2476 27.4682 63.3143 27.5682C63.4143 27.6682 63.4976 27.7848 63.5643 27.9182C63.731 28.1515 63.8976 28.3848 64.0643 28.6182C64.231 28.8182 64.3976 29.0348 64.5643 29.2682C64.5976 29.2682 64.6143 29.2848 64.6143 29.3182C64.6476 29.3848 64.731 29.4848 64.8643 29.6182C64.931 29.7182 64.9976 29.8348 65.0643 29.9682C65.1643 30.0682 65.2643 30.1682 65.3643 30.2682C65.531 30.4682 65.6976 30.6848 65.8643 30.9182C66.0643 31.1182 66.2476 31.3182 66.4143 31.5182C66.5143 31.6515 66.6143 31.7682 66.7143 31.8682C66.8143 31.9682 66.9143 32.0682 67.0143 32.1682C67.081 32.2348 67.1143 32.2682 67.1143 32.2682C67.181 32.3348 67.2143 32.3848 67.2143 32.4182C67.2476 32.4515 67.2976 32.5015 67.3643 32.5682C67.5643 32.7682 67.7643 32.9682 67.9643 33.1682C68.1643 33.3348 68.3643 33.5182 68.5643 33.7182C69.331 34.3848 70.131 35.0182 70.9643 35.6182C71.7976 36.2182 72.6976 36.7348 73.6643 37.1682C74.5976 37.5348 75.581 37.8182 76.6143 38.0182C77.6476 38.2182 78.6643 38.2348 79.6643 38.0682C80.331 37.9682 80.9476 37.7848 81.5143 37.5182C82.081 37.2182 82.5976 36.8348 83.0643 36.3682C83.7976 35.4682 84.2476 34.4348 84.4143 33.2682C84.4476 33.0682 84.4643 32.8848 84.4643 32.7182C84.4643 32.5182 84.4643 32.3348 84.4643 32.1682V32.0182C84.0643 31.7515 83.5976 31.4848 83.0643 31.2182C82.3643 30.9182 81.631 30.7182 80.8643 30.6182C80.131 30.4848 79.381 30.4515 78.6143 30.5182C77.8476 30.8182 77.0476 31.0015 76.2143 31.0682C75.4143 31.1348 74.6143 31.0515 73.8143 30.8182C73.681 30.7515 73.5643 30.6348 73.4643 30.4682C73.3643 30.2682 73.281 30.1182 73.2143 30.0182C73.0476 29.6515 72.881 29.3015 72.7143 28.9682C72.5476 28.6348 72.381 28.2848 72.2143 27.9182C72.0476 27.5515 71.8976 27.1848 71.7643 26.8182C71.631 26.4515 71.4976 26.0848 71.3643 25.7182C71.3643 25.7515 71.3476 25.7182 71.3143 25.6182C71.3143 25.5182 71.2976 25.4015 71.2643 25.2682C71.231 25.1348 71.1976 25.0182 71.1643 24.9182C71.1643 24.7848 71.181 24.7182 71.2143 24.7182C71.381 24.7848 71.5476 24.8348 71.7143 24.8682C71.9143 24.9015 72.0976 24.9348 72.2643 24.9682C73.231 25.1015 74.181 25.0348 75.1143 24.7682C76.081 24.4682 76.9643 24.0348 77.7643 23.4682C78.531 22.9348 79.1976 22.3015 79.7643 21.5682C80.331 20.8015 80.731 19.9682 80.9643 19.0682V19.0182C80.931 18.9848 80.8976 18.9682 80.8643 18.9682C80.8643 18.9682 80.8476 18.9515 80.8143 18.9182C80.781 18.8848 80.7476 18.8682 80.7143 18.8682C79.7476 18.3348 78.731 18.0848 77.6643 18.1182C76.5976 18.1182 75.5643 18.3348 74.5643 18.7682C73.5643 19.2015 72.6476 19.7848 71.8143 20.5182C71.0143 21.2515 70.381 22.0848 69.9143 23.0182C69.9143 23.0515 69.8643 23.0182 69.7643 22.9182C69.6976 22.8182 69.631 22.7182 69.5643 22.6182C69.4976 22.5182 69.431 22.4182 69.3643 22.3182C69.331 22.2182 69.3143 22.1848 69.3143 22.2182C69.1476 21.8515 68.981 21.5015 68.8143 21.1682C68.6476 20.8348 68.481 20.4848 68.3143 20.1182C68.1476 19.7515 67.9976 19.3848 67.8643 19.0182C67.731 18.6515 67.5976 18.2848 67.4643 17.9182C67.431 17.8182 67.381 17.6682 67.3143 17.4682C67.2476 17.2348 67.2476 17.0682 67.3143 16.9682C67.681 16.2682 68.1476 15.6182 68.7143 15.0182C69.281 14.3848 69.8976 13.8515 70.5643 13.4182C71.2643 12.9848 71.9976 12.6515 72.7643 12.4182C73.5643 12.1848 74.3643 12.0682 75.1643 12.0682C76.2643 12.0682 77.281 12.3348 78.2143 12.8682C78.781 13.2015 79.2643 13.5515 79.6643 13.9182C79.931 14.1848 80.1643 14.4848 80.3643 14.8182C80.5976 15.1515 80.8143 15.5015 81.0143 15.8682C81.481 16.7015 81.9143 17.5682 82.3143 18.4682C82.7143 19.3348 83.0476 20.2348 83.3143 21.1682C83.5476 21.8015 83.6976 22.5015 83.7643 23.2682C83.7976 23.3682 83.8143 23.5182 83.8143 23.7182C84.881 23.7182 85.9143 23.4848 86.9143 23.0182C87.9476 22.5182 88.981 22.0515 90.0143 21.6182C90.1143 21.5848 90.2476 21.6682 90.4143 21.8682C90.6143 22.0682 90.7476 22.1848 90.8143 22.2182C91.081 22.4848 91.331 22.7682 91.5643 23.0682C91.831 23.3682 92.0976 23.6515 92.3643 23.9182C92.631 24.2182 92.881 24.5182 93.1143 24.8182C93.3476 25.1182 93.581 25.4348 93.8143 25.7682ZM58.8143 21.9182V21.9682C58.881 22.0348 58.931 22.1015 58.9643 22.1682C58.9976 22.2015 58.9476 22.1182 58.8143 21.9182Z" fill="#056ABB"/>
<path d="M99.4182 18.0182C99.5182 18.2182 99.6015 18.3848 99.6682 18.5182C99.8015 18.8182 99.8349 18.9682 99.7682 18.9682H94.9682C95.0015 19.8682 95.0015 20.7682 94.9682 21.6682C94.9682 22.5348 94.9849 23.4182 95.0182 24.3182C95.0182 25.1182 95.0015 25.9182 94.9682 26.7182C94.9682 27.5182 94.9849 28.3182 95.0182 29.1182C95.0515 29.8848 95.0849 30.6682 95.1182 31.4682C95.1849 32.2682 95.2182 33.0515 95.2182 33.8182C95.2182 34.6848 95.2015 35.5682 95.1682 36.4682C95.1349 37.3348 94.9849 38.2015 94.7182 39.0682C94.5182 39.7015 94.2182 40.3015 93.8182 40.8682C93.4515 41.4015 92.9182 41.7348 92.2182 41.8682H92.1682L95.0682 45.0682L94.8682 45.2682L91.1182 41.2182C90.5515 40.7848 90.0349 40.3182 89.5682 39.8182C89.3015 39.5515 89.0349 39.2848 88.7682 39.0182C88.5015 38.7515 88.2349 38.4682 87.9682 38.1682C87.9682 38.1682 87.9349 38.1348 87.8682 38.0682C87.8015 37.9682 87.7349 37.8682 87.6682 37.7682C87.6015 37.6682 87.5349 37.5682 87.4682 37.4682C87.4015 37.3682 87.3849 37.3182 87.4182 37.3182C87.9182 37.2182 88.3349 37.0182 88.6682 36.7182C89.0015 36.4182 89.2849 36.0682 89.5182 35.6682C89.7182 35.2348 89.8849 34.7848 90.0182 34.3182C90.1182 33.8515 90.2015 33.4015 90.2682 32.9682C90.4015 32.1015 90.4682 31.2182 90.4682 30.3182C90.5015 29.3848 90.4849 28.4682 90.4182 27.5682C90.3849 26.9015 90.3515 26.2348 90.3182 25.5682C90.2515 24.8682 90.2182 24.1848 90.2182 23.5182V18.9682H85.1682C85.0349 18.9682 84.9015 18.8848 84.7682 18.7182C84.6015 18.5182 84.4849 18.3848 84.4182 18.3182C83.9515 17.7515 83.5015 17.1182 83.0682 16.4182C82.6015 15.7182 82.2015 15.0515 81.8682 14.4182C81.7682 14.2515 81.6849 14.1015 81.6182 13.9682C81.4849 13.6348 81.4515 13.4682 81.5182 13.4682H90.1682C90.1682 13.3015 90.1682 13.1515 90.1682 13.0182C90.1682 12.8515 90.1515 12.6848 90.1182 12.5182C90.1182 12.4848 90.1682 12.5015 90.2682 12.5682C90.3682 12.6015 90.4682 12.6682 90.5682 12.7682C90.7015 12.8348 90.8015 12.9015 90.8682 12.9682C90.9682 13.0015 91.0182 13.0182 91.0182 13.0182C91.1182 13.1182 91.3015 13.2682 91.5682 13.4682H96.1182C96.2515 13.4682 96.3849 13.5682 96.5182 13.7682C96.6849 13.9682 96.8015 14.1015 96.8682 14.1682C97.1015 14.4682 97.3182 14.7848 97.5182 15.1182C97.7515 15.4182 97.9849 15.7348 98.2182 16.0682C98.4182 16.3682 98.6182 16.6848 98.8182 17.0182C99.0515 17.3515 99.2515 17.6848 99.4182 18.0182Z" fill="#056ABB"/>
<path d="M109.428 18.0182C109.528 18.2182 109.611 18.3848 109.678 18.5182C109.811 18.8182 109.845 18.9682 109.778 18.9682H104.978C105.011 19.8682 105.011 20.7682 104.978 21.6682C104.978 22.5348 104.995 23.4182 105.028 24.3182C105.028 25.1182 105.011 25.9182 104.978 26.7182C104.978 27.5182 104.995 28.3182 105.028 29.1182C105.061 29.8848 105.095 30.6682 105.128 31.4682C105.195 32.2682 105.228 33.0515 105.228 33.8182C105.228 34.6848 105.211 35.5682 105.178 36.4682C105.145 37.3348 104.995 38.2015 104.728 39.0682C104.528 39.7015 104.228 40.3015 103.828 40.8682C103.461 41.4015 102.928 41.7348 102.228 41.8682H102.178L105.078 45.0682L104.878 45.2682L101.128 41.2182C100.561 40.7848 100.045 40.3182 99.578 39.8182C99.3113 39.5515 99.0446 39.2848 98.778 39.0182C98.5113 38.7515 98.2446 38.4682 97.978 38.1682C97.978 38.1682 97.9446 38.1348 97.878 38.0682C97.8113 37.9682 97.7446 37.8682 97.678 37.7682C97.6113 37.6682 97.5446 37.5682 97.478 37.4682C97.4113 37.3682 97.3946 37.3182 97.428 37.3182C97.928 37.2182 98.3446 37.0182 98.678 36.7182C99.0113 36.4182 99.2946 36.0682 99.528 35.6682C99.728 35.2348 99.8946 34.7848 100.028 34.3182C100.128 33.8515 100.211 33.4015 100.278 32.9682C100.411 32.1015 100.478 31.2182 100.478 30.3182C100.511 29.3848 100.495 28.4682 100.428 27.5682C100.395 26.9015 100.361 26.2348 100.328 25.5682C100.261 24.8682 100.228 24.1848 100.228 23.5182V18.9682H95.178C95.0446 18.9682 94.9113 18.8848 94.778 18.7182C94.6113 18.5182 94.4946 18.3848 94.428 18.3182C93.9613 17.7515 93.5113 17.1182 93.078 16.4182C92.6113 15.7182 92.2113 15.0515 91.878 14.4182C91.778 14.2515 91.6946 14.1015 91.628 13.9682C91.4946 13.6348 91.4613 13.4682 91.528 13.4682H100.178C100.178 13.3015 100.178 13.1515 100.178 13.0182C100.178 12.8515 100.161 12.6848 100.128 12.5182C100.128 12.4848 100.178 12.5015 100.278 12.5682C100.378 12.6015 100.478 12.6682 100.578 12.7682C100.711 12.8348 100.811 12.9015 100.878 12.9682C100.978 13.0015 101.028 13.0182 101.028 13.0182C101.128 13.1182 101.311 13.2682 101.578 13.4682H106.128C106.261 13.4682 106.395 13.5682 106.528 13.7682C106.695 13.9682 106.811 14.1015 106.878 14.1682C107.111 14.4682 107.328 14.7848 107.528 15.1182C107.761 15.4182 107.995 15.7348 108.228 16.0682C108.428 16.3682 108.628 16.6848 108.828 17.0182C109.061 17.3515 109.261 17.6848 109.428 18.0182Z" fill="#056ABB"/>
<path d="M188.738 61.0182C188.938 61.2515 188.988 61.4182 188.888 61.5182C188.821 61.5848 188.671 61.5182 188.438 61.3182C188.238 61.1182 188.121 60.9848 188.088 60.9182C187.888 60.7182 187.688 60.5182 187.488 60.3182C187.321 60.1182 187.138 59.9182 186.938 59.7182C186.871 59.6848 186.804 59.6515 186.738 59.6182C186.704 59.5848 186.654 59.5515 186.588 59.5182C185.988 59.1848 185.321 58.9182 184.588 58.7182C184.354 58.6515 184.121 58.6015 183.888 58.5682C183.688 58.5682 183.471 58.5515 183.238 58.5182C182.171 58.4182 181.121 58.4515 180.088 58.6182C179.088 58.8182 178.104 59.1015 177.138 59.4682C175.971 59.9348 174.821 60.4682 173.688 61.0682C172.588 61.6682 171.454 62.2515 170.288 62.8182C169.154 63.3515 168.004 63.8015 166.838 64.1682C165.704 64.5348 164.504 64.7848 163.238 64.9182C160.804 65.1182 158.438 64.9515 156.138 64.4182C153.738 63.8848 151.421 63.0848 149.188 62.0182C146.954 60.9515 144.838 59.7182 142.838 58.3182C140.704 56.7848 138.654 55.1682 136.688 53.4682C134.721 51.8015 132.738 50.1182 130.738 48.4182C130.238 47.9848 129.738 47.5682 129.238 47.1682C128.738 46.7682 128.238 46.3682 127.738 45.9682L126.238 44.7682C126.204 44.7682 126.171 44.7515 126.138 44.7182C126.104 44.6848 126.071 44.6682 126.038 44.6682C126.004 44.6348 125.971 44.6015 125.938 44.5682C125.804 44.4682 125.671 44.3848 125.538 44.3182C125.438 44.2182 125.321 44.1348 125.188 44.0682C125.088 43.9682 124.971 43.8848 124.838 43.8182C123.838 43.1182 122.804 42.4682 121.738 41.8682C120.671 41.2348 119.538 40.7848 118.338 40.5182C117.504 40.3182 116.671 40.2515 115.838 40.3182C115.038 40.3515 114.254 40.5682 113.488 40.9682C113.388 41.0348 113.238 40.9682 113.038 40.7682C112.871 40.5682 112.754 40.4348 112.688 40.3682C112.421 40.1015 112.154 39.8182 111.888 39.5182C111.654 39.2182 111.404 38.9182 111.138 38.6182C111.071 38.5848 110.921 38.4348 110.688 38.1682C110.488 37.8682 110.271 37.5682 110.038 37.2682C109.771 36.9348 109.554 36.6348 109.388 36.3682C109.221 36.1015 109.171 35.9515 109.238 35.9182C110.104 35.4515 110.938 35.0015 111.738 34.5682C112.571 34.1015 113.388 33.6348 114.188 33.1682C117.088 31.4348 119.854 29.6015 122.488 27.6682C123.121 27.2015 123.738 26.7515 124.338 26.3182C124.938 25.8515 125.504 25.3515 126.038 24.8182C126.404 24.4515 126.704 24.0515 126.938 23.6182C127.204 23.1848 127.404 22.7348 127.538 22.2682C126.504 22.0682 125.404 22.0515 124.238 22.2182C122.204 22.4848 120.288 23.1682 118.488 24.2682C116.721 25.3348 115.271 26.7182 114.138 28.4182C114.071 28.4848 113.921 28.4182 113.688 28.2182C113.488 28.0182 113.371 27.9015 113.338 27.8682C113.071 27.6015 112.804 27.3182 112.538 27.0182C112.271 26.7182 112.004 26.4182 111.738 26.1182C111.271 25.5515 110.804 24.9348 110.338 24.2682C110.238 24.1682 110.154 24.0515 110.088 23.9182C109.888 23.6515 109.821 23.4682 109.888 23.3682C111.088 21.5682 112.671 20.1015 114.638 18.9682H106.338C106.204 18.9682 106.071 18.8682 105.938 18.6682C105.771 18.4682 105.654 18.3348 105.588 18.2682C105.054 17.6348 104.604 17.0182 104.238 16.4182C104.004 16.0848 103.788 15.7515 103.588 15.4182C103.388 15.0848 103.204 14.7515 103.038 14.4182C102.938 14.2515 102.854 14.1015 102.788 13.9682C102.654 13.6348 102.621 13.4682 102.688 13.4682H132.388C132.521 13.4682 132.654 13.5682 132.788 13.7682C132.921 13.9348 133.021 14.0515 133.088 14.1182C133.354 14.4182 133.588 14.7348 133.788 15.0682C134.021 15.3682 134.254 15.6848 134.488 16.0182C134.688 16.3515 134.888 16.6848 135.088 17.0182C135.288 17.3182 135.488 17.6515 135.688 18.0182L135.888 18.5182C136.021 18.8182 136.054 18.9682 135.988 18.9682H126.838C127.104 19.2348 127.354 19.5015 127.588 19.7682C127.854 20.0348 128.121 20.3015 128.388 20.5682C128.821 21.0348 129.221 21.5182 129.588 22.0182C129.988 22.4848 130.371 22.9848 130.738 23.5182C131.004 23.8848 131.238 24.2682 131.438 24.6682C131.638 25.0682 131.771 25.5015 131.838 25.9682C131.938 26.7015 131.838 27.3848 131.538 28.0182C131.238 28.6182 130.854 29.1848 130.388 29.7182C129.854 30.2848 129.271 30.8182 128.638 31.3182C128.004 31.7848 127.371 32.2515 126.738 32.7182C126.038 33.2182 125.338 33.7182 124.638 34.2182C123.938 34.7182 123.221 35.2015 122.488 35.6682C121.954 36.0348 121.421 36.3848 120.888 36.7182C120.354 37.0515 119.804 37.3848 119.238 37.7182C120.638 38.5848 121.988 39.5348 123.288 40.5682C124.621 41.6015 125.921 42.6515 127.188 43.7182C128.454 44.7848 129.721 45.8682 130.988 46.9682C132.254 48.0682 133.538 49.1515 134.838 50.2182C135.504 50.7848 136.138 51.3015 136.738 51.7682C137.371 52.2348 138.021 52.7015 138.688 53.1682C139.354 53.6348 140.021 54.0848 140.688 54.5182C141.354 54.9515 142.038 55.3682 142.738 55.7682C144.138 56.5348 145.554 57.2182 146.988 57.8182C148.454 58.4182 149.954 58.9015 151.488 59.2682C152.854 59.6015 154.221 59.8182 155.588 59.9182C156.988 60.0182 158.388 59.9682 159.788 59.7682C161.088 59.5682 162.338 59.2348 163.538 58.7682C164.771 58.3348 165.971 57.8182 167.138 57.2182C168.304 56.6182 169.471 56.0015 170.638 55.3682C171.804 54.7682 173.021 54.2848 174.288 53.9182C175.288 53.6515 176.304 53.4848 177.338 53.4182C178.404 53.3515 179.454 53.4515 180.488 53.7182C180.988 53.8515 181.454 54.0015 181.888 54.1682C182.354 54.3682 182.804 54.6182 183.238 54.9182C183.604 55.1848 183.954 55.4682 184.288 55.7682C184.621 56.0682 184.954 56.3848 185.288 56.7182C186.421 57.9182 187.471 59.2182 188.438 60.6182L188.738 61.0182Z" fill="#056ABB"/>
<path d="M166.779 18.0182C166.779 18.0182 166.795 18.0682 166.829 18.1682C166.862 18.2682 166.895 18.3848 166.929 18.5182C166.995 18.6182 167.045 18.7182 167.079 18.8182C167.112 18.9182 167.112 18.9682 167.079 18.9682H151.079C150.945 18.9682 150.812 18.8682 150.679 18.6682C150.545 18.4682 150.445 18.3348 150.379 18.2682C149.912 17.7015 149.445 17.0848 148.979 16.4182C148.779 16.0848 148.579 15.7515 148.379 15.4182C148.179 15.0848 147.979 14.7515 147.779 14.4182C147.712 14.2515 147.645 14.1015 147.579 13.9682C147.445 13.6348 147.395 13.4682 147.429 13.4682H163.429C163.595 13.4682 163.745 13.5682 163.879 13.7682C164.012 13.9348 164.112 14.0515 164.179 14.1182C164.645 14.6848 165.095 15.3182 165.529 16.0182C165.929 16.6182 166.345 17.2848 166.779 18.0182ZM156.529 22.8682C156.562 22.9015 156.729 23.0182 157.029 23.2182C157.329 23.4182 157.629 23.6348 157.929 23.8682C158.262 24.1015 158.545 24.3348 158.779 24.5682C159.045 24.7682 159.162 24.8848 159.129 24.9182C158.662 25.3848 158.162 25.8182 157.629 26.2182C157.129 26.6182 156.579 26.9515 155.979 27.2182C155.679 27.3182 155.362 27.4015 155.029 27.4682C154.729 27.5348 154.412 27.5348 154.079 27.4682C153.412 27.4015 152.779 27.2015 152.179 26.8682C151.579 26.5348 150.995 26.2015 150.429 25.8682C150.129 25.7015 149.812 25.5182 149.479 25.3182C149.179 25.1182 148.895 24.9182 148.629 24.7182C148.129 25.2848 147.579 25.7848 146.979 26.2182C146.512 26.5848 146.012 26.9348 145.479 27.2682C144.979 27.6015 144.479 27.9348 143.979 28.2682C142.912 28.9682 141.962 29.7682 141.129 30.6682C140.262 31.5348 139.529 32.5515 138.929 33.7182C138.362 34.8515 138.179 36.0515 138.379 37.3182C138.412 37.4515 138.429 37.5848 138.429 37.7182C138.462 37.8515 138.512 37.9848 138.579 38.1182C138.779 38.1848 138.962 38.2348 139.129 38.2682C139.329 38.3015 139.529 38.3348 139.729 38.3682C140.195 38.4348 140.645 38.4515 141.079 38.4182C141.512 38.3848 141.929 38.2848 142.329 38.1182C142.329 37.7848 142.329 37.4682 142.329 37.1682C142.329 36.8682 142.362 36.5515 142.429 36.2182C142.529 35.2515 142.729 34.3182 143.029 33.4182C143.195 32.9515 143.395 32.5015 143.629 32.0682C143.862 31.6015 144.145 31.1848 144.479 30.8182C144.812 30.4515 145.162 30.1682 145.529 29.9682C145.929 29.7348 146.362 29.5848 146.829 29.5182C147.129 29.4848 147.429 29.4848 147.729 29.5182C147.862 29.5515 148.045 29.6515 148.279 29.8182C148.479 29.9182 148.645 30.0348 148.779 30.1682C149.112 30.4348 149.429 30.7015 149.729 30.9682C150.029 31.2348 150.312 31.5015 150.579 31.7682C150.879 32.0348 151.162 32.3182 151.429 32.6182C151.729 32.8848 152.012 33.1682 152.279 33.4682C152.379 33.6348 152.462 33.7682 152.529 33.8682C152.629 33.9682 152.729 34.1015 152.829 34.2682C152.862 34.3015 152.879 34.3348 152.879 34.3682C152.879 34.4015 152.895 34.4348 152.929 34.4682C152.962 34.7348 152.962 34.9848 152.929 35.2182C152.829 35.7515 152.612 36.3015 152.279 36.8682C151.912 37.5348 151.495 38.1848 151.029 38.8182C150.595 39.4515 150.129 40.0515 149.629 40.6182C149.429 40.8515 149.229 41.0848 149.029 41.3182C148.829 41.5182 148.612 41.7348 148.379 41.9682C147.912 42.3015 147.495 42.5348 147.129 42.6682C147.129 43.2682 147.179 43.8348 147.279 44.3682C147.479 45.4015 147.779 46.4348 148.179 47.4682C148.279 47.7015 148.379 47.9348 148.479 48.1682C148.612 48.4015 148.729 48.6348 148.829 48.8682C148.995 48.9348 149.162 48.9682 149.329 48.9682C149.495 49.0015 149.662 49.0348 149.829 49.0682C151.562 49.2348 153.062 48.8015 154.329 47.7682C154.395 47.7015 154.545 47.7515 154.779 47.9182C155.045 48.1182 155.195 48.2348 155.229 48.2682C155.529 48.5015 155.812 48.7515 156.079 49.0182C156.379 49.2848 156.679 49.5515 156.979 49.8182C157.012 49.8515 157.145 49.9848 157.379 50.2182C157.645 50.4515 157.912 50.7182 158.179 51.0182C158.445 51.3182 158.679 51.6015 158.879 51.8682C159.112 52.1348 159.195 52.2848 159.129 52.3182C158.362 52.9515 157.479 53.3682 156.479 53.5682C155.479 53.7682 154.495 53.7182 153.529 53.4182C152.895 53.2515 152.262 52.9515 151.629 52.5182C151.029 52.1182 150.445 51.6682 149.879 51.1682C149.345 50.7015 148.812 50.2182 148.279 49.7182C147.512 48.9515 146.762 48.1515 146.029 47.3182C145.329 46.5182 144.712 45.6348 144.179 44.6682C144.012 44.3682 143.845 44.0515 143.679 43.7182C143.545 43.3848 143.412 43.0515 143.279 42.7182C142.712 42.5515 142.179 42.3348 141.679 42.0682C141.179 41.7682 140.695 41.4348 140.229 41.0682C139.629 40.6348 139.045 40.1682 138.479 39.6682C137.945 39.1682 137.412 38.6515 136.879 38.1182C136.512 37.7182 136.145 37.3182 135.779 36.9182C135.412 36.4848 135.062 36.0348 134.729 35.5682C134.429 35.1015 134.179 34.6182 133.979 34.1182C133.779 33.5848 133.645 33.0348 133.579 32.4682C133.445 31.1682 133.712 29.9515 134.379 28.8182C135.045 27.6515 135.812 26.6348 136.679 25.7682C137.512 24.9682 138.462 24.2015 139.529 23.4682C139.762 23.3348 139.979 23.2015 140.179 23.0682C140.412 22.9348 140.645 22.7848 140.879 22.6182C140.779 22.5182 140.679 22.4182 140.579 22.3182C140.479 22.1848 140.379 22.0682 140.279 21.9682C140.012 21.6348 139.762 21.3015 139.529 20.9682C139.295 20.6015 139.112 20.2182 138.979 19.8182C138.779 19.2848 138.629 18.7348 138.529 18.1682C138.395 17.6015 138.312 17.0015 138.279 16.3682C138.245 15.7348 138.362 15.1348 138.629 14.5682C138.795 14.1348 139.062 13.7182 139.429 13.3182C139.829 12.9182 140.262 12.6348 140.729 12.4682C141.162 12.3015 141.579 12.2682 141.979 12.3682C142.379 12.4682 142.762 12.6515 143.129 12.9182C143.562 13.2182 143.995 13.5515 144.429 13.9182C145.362 14.7182 146.262 15.5682 147.129 16.4682C147.429 16.8015 147.712 17.1348 147.979 17.4682C148.245 17.8015 148.495 18.1682 148.729 18.5682C149.162 19.3348 149.429 20.2015 149.529 21.1682C149.595 21.6015 149.595 22.0348 149.529 22.4682C149.495 22.9015 149.395 23.3182 149.229 23.7182C149.195 23.7515 149.179 23.7848 149.179 23.8182C149.179 23.8515 149.162 23.8848 149.129 23.9182H149.329C150.195 23.8182 150.962 23.5182 151.629 23.0182C152.329 22.4848 152.979 21.9348 153.579 21.3682C153.645 21.3015 153.812 21.3348 154.079 21.4682C154.345 21.6015 154.495 21.6682 154.529 21.6682C154.895 21.8682 155.229 22.0682 155.529 22.2682C155.862 22.4682 156.195 22.6682 156.529 22.8682ZM148.129 30.0682C148.062 29.9682 148.029 29.9348 148.029 29.9682C148.062 29.9682 148.095 30.0015 148.129 30.0682ZM143.879 18.3182C143.579 18.6848 143.362 19.1015 143.229 19.5682C143.129 20.0348 143.079 20.5015 143.079 20.9682C143.412 20.6682 143.695 20.3515 143.929 20.0182C144.195 19.6515 144.412 19.2682 144.579 18.8682C144.645 18.6348 144.695 18.4015 144.729 18.1682C144.762 17.9348 144.795 17.6848 144.829 17.4182C144.462 17.6515 144.145 17.9515 143.879 18.3182Z" fill="#056ABB"/>
<path d="M163.53 18.0182C163.63 18.2182 163.713 18.3848 163.78 18.5182C163.913 18.8182 163.946 18.9682 163.88 18.9682H159.08C159.113 19.8682 159.113 20.7682 159.08 21.6682C159.08 22.5348 159.096 23.4182 159.13 24.3182C159.13 25.1182 159.113 25.9182 159.08 26.7182C159.08 27.5182 159.096 28.3182 159.13 29.1182C159.163 29.8848 159.196 30.6682 159.23 31.4682C159.296 32.2682 159.33 33.0515 159.33 33.8182C159.33 34.6848 159.313 35.5682 159.28 36.4682C159.246 37.3348 159.096 38.2015 158.83 39.0682C158.63 39.7015 158.33 40.3015 157.93 40.8682C157.563 41.4015 157.03 41.7348 156.33 41.8682H156.28L159.18 45.0682L158.98 45.2682L155.23 41.2182C154.663 40.7848 154.146 40.3182 153.68 39.8182C153.413 39.5515 153.146 39.2848 152.88 39.0182C152.613 38.7515 152.346 38.4682 152.08 38.1682C152.08 38.1682 152.046 38.1348 151.98 38.0682C151.913 37.9682 151.846 37.8682 151.78 37.7682C151.713 37.6682 151.646 37.5682 151.58 37.4682C151.513 37.3682 151.496 37.3182 151.53 37.3182C152.03 37.2182 152.446 37.0182 152.78 36.7182C153.113 36.4182 153.396 36.0682 153.63 35.6682C153.83 35.2348 153.996 34.7848 154.13 34.3182C154.23 33.8515 154.313 33.4015 154.38 32.9682C154.513 32.1015 154.58 31.2182 154.58 30.3182C154.613 29.3848 154.596 28.4682 154.53 27.5682C154.496 26.9015 154.463 26.2348 154.43 25.5682C154.363 24.8682 154.33 24.1848 154.33 23.5182V18.9682H149.28C149.146 18.9682 149.013 18.8848 148.88 18.7182C148.713 18.5182 148.596 18.3848 148.53 18.3182C148.063 17.7515 147.613 17.1182 147.18 16.4182C146.713 15.7182 146.313 15.0515 145.98 14.4182C145.88 14.2515 145.796 14.1015 145.73 13.9682C145.596 13.6348 145.563 13.4682 145.63 13.4682H154.28C154.28 13.3015 154.28 13.1515 154.28 13.0182C154.28 12.8515 154.263 12.6848 154.23 12.5182C154.23 12.4848 154.28 12.5015 154.38 12.5682C154.48 12.6015 154.58 12.6682 154.68 12.7682C154.813 12.8348 154.913 12.9015 154.98 12.9682C155.08 13.0015 155.13 13.0182 155.13 13.0182C155.23 13.1182 155.413 13.2682 155.68 13.4682H160.23C160.363 13.4682 160.496 13.5682 160.63 13.7682C160.796 13.9682 160.913 14.1015 160.98 14.1682C161.213 14.4682 161.43 14.7848 161.63 15.1182C161.863 15.4182 162.096 15.7348 162.33 16.0682C162.53 16.3682 162.73 16.6848 162.93 17.0182C163.163 17.3515 163.363 17.6848 163.53 18.0182Z" fill="#056ABB"/>
<path d="M195.389 18.1182C195.489 18.3182 195.573 18.4848 195.639 18.6182C195.773 18.9182 195.806 19.0682 195.739 19.0682C194.406 19.0682 192.539 19.0682 190.139 19.0682C187.739 19.0682 185.123 19.0515 182.289 19.0182C182.323 19.4182 182.339 19.8182 182.339 20.2182C182.339 20.5848 182.339 20.9515 182.339 21.3182C183.173 21.1515 183.956 21.2515 184.689 21.6182C185.423 21.9848 186.073 22.4515 186.639 23.0182C187.206 23.5848 187.723 24.2015 188.189 24.8682C188.689 25.5015 189.173 26.1515 189.639 26.8182C189.906 27.2848 190.173 27.7515 190.439 28.2182C190.739 28.6515 190.989 29.1182 191.189 29.6182C191.623 30.5848 191.889 31.6348 191.989 32.7682C192.056 33.8348 192.006 34.9015 191.839 35.9682C191.673 37.0348 191.406 38.0682 191.039 39.0682C190.739 39.9682 190.306 40.8015 189.739 41.5682C189.573 41.8348 189.406 42.0848 189.239 42.3182C189.073 42.5515 188.889 42.7682 188.689 42.9682C188.456 43.2015 188.206 43.4182 187.939 43.6182C187.706 43.7848 187.439 43.9348 187.139 44.0682C187.039 44.1015 186.889 44.0015 186.689 43.7682C186.523 43.5348 186.423 43.4182 186.389 43.4182C185.856 42.7848 185.373 42.1515 184.939 41.5182C184.906 41.4848 184.789 41.3348 184.589 41.0682C184.423 40.7682 184.223 40.4515 183.989 40.1182C183.789 39.7515 183.606 39.4348 183.439 39.1682C183.306 38.8682 183.273 38.7015 183.339 38.6682C183.873 38.4348 184.356 38.1182 184.789 37.7182C184.889 37.6182 184.973 37.5182 185.039 37.4182C185.139 37.2848 185.239 37.1682 185.339 37.0682C185.406 36.9348 185.473 36.8182 185.539 36.7182C185.639 36.5848 185.723 36.4682 185.789 36.3682C186.289 35.7348 186.689 35.0348 186.989 34.2682C187.356 33.4348 187.639 32.5682 187.839 31.6682C188.039 30.7348 188.173 29.8015 188.239 28.8682C188.239 28.2015 188.189 27.5348 188.089 26.8682C188.056 26.8682 188.023 26.8682 187.989 26.8682C187.989 26.8348 187.956 26.8182 187.889 26.8182C186.723 26.4848 185.673 26.6515 184.739 27.3182C183.839 27.9848 183.039 28.7848 182.339 29.7182C182.339 29.7848 182.339 29.8515 182.339 29.9182C182.373 29.9515 182.389 30.0015 182.389 30.0682C182.423 30.8682 182.456 31.6682 182.489 32.4682C182.523 33.2348 182.556 34.0015 182.589 34.7682C182.589 35.6348 182.556 36.5182 182.489 37.4182C182.456 38.2848 182.323 39.1515 182.089 40.0182C181.889 40.6848 181.589 41.3015 181.189 41.8682C180.823 42.4015 180.273 42.7348 179.539 42.8682H179.489L182.439 46.0182L182.189 46.2182L178.439 42.1682L176.939 40.8182C176.673 40.5515 176.406 40.2848 176.139 40.0182C175.873 39.7182 175.623 39.4348 175.389 39.1682C175.323 39.1682 175.273 39.1848 175.239 39.2182C175.239 39.2182 175.206 39.2182 175.139 39.2182C174.606 39.3848 174.089 39.4348 173.589 39.3682C173.123 39.2682 172.656 39.1015 172.189 38.8682C171.756 38.6348 171.339 38.3348 170.939 37.9682C170.573 37.6015 170.239 37.2348 169.939 36.8682C168.939 35.7348 168.039 34.5348 167.239 33.2682C166.606 32.2682 166.056 31.3015 165.589 30.3682C165.356 29.8682 165.139 29.3515 164.939 28.8182C164.773 28.2848 164.656 27.7348 164.589 27.1682C164.523 26.7348 164.489 26.3015 164.489 25.8682C164.523 25.4348 164.589 25.0015 164.689 24.5682C164.956 23.7682 165.323 23.0682 165.789 22.4682C166.789 21.1682 168.106 20.1515 169.739 19.4182C170.073 19.2848 170.473 19.1348 170.939 18.9682H162.739C162.606 18.9682 162.473 18.8848 162.339 18.7182C162.173 18.5182 162.056 18.3848 161.989 18.3182C161.723 17.9848 161.489 17.6682 161.289 17.3682C161.056 17.0682 160.839 16.7515 160.639 16.4182C160.173 15.7182 159.773 15.0515 159.439 14.4182C159.339 14.2515 159.256 14.1015 159.189 13.9682C159.056 13.6348 159.023 13.4682 159.089 13.4682C159.923 13.4682 161.023 13.4682 162.389 13.4682C163.723 13.4682 165.206 13.4848 166.839 13.5182C168.473 13.5182 170.189 13.5182 171.989 13.5182C173.823 13.5182 175.656 13.5182 177.489 13.5182V13.4682H177.539C177.539 13.4682 177.573 13.4848 177.639 13.5182C179.139 13.5182 180.606 13.5348 182.039 13.5682C183.473 13.5682 184.806 13.5682 186.039 13.5682C187.306 13.5682 188.456 13.5682 189.489 13.5682C190.523 13.5682 191.389 13.5682 192.089 13.5682C192.223 13.5682 192.356 13.6682 192.489 13.8682C192.656 14.0682 192.773 14.2015 192.839 14.2682C193.073 14.5682 193.289 14.8682 193.489 15.1682C193.723 15.4682 193.956 15.7848 194.189 16.1182C194.389 16.4515 194.589 16.7848 194.789 17.1182C195.023 17.4515 195.223 17.7848 195.389 18.1182ZM169.339 33.8682C170.173 34.1348 170.906 34.1182 171.539 33.8182C172.206 33.4848 172.806 33.0348 173.339 32.4682C173.873 31.9015 174.339 31.2682 174.739 30.5682C175.173 29.8348 175.556 29.1682 175.889 28.5682C176.156 28.1015 176.423 27.6182 176.689 27.1182C176.989 26.6182 177.306 26.1348 177.639 25.6682C177.606 25.4682 177.589 25.2682 177.589 25.0682C177.589 24.8682 177.589 24.6682 177.589 24.4682V24.2682C177.089 24.1348 176.573 24.1015 176.039 24.1682C175.539 24.2015 175.039 24.3015 174.539 24.4682C172.906 24.9348 171.506 25.7848 170.339 27.0182C169.773 27.5848 169.306 28.2182 168.939 28.9182C168.573 29.5848 168.373 30.3015 168.339 31.0682C168.339 31.8682 168.439 32.6348 168.639 33.3682C168.639 33.4348 168.656 33.5015 168.689 33.5682C168.956 33.7015 169.173 33.8015 169.339 33.8682ZM177.589 19.0182H174.239C174.739 19.2182 175.173 19.5015 175.539 19.8682C175.906 20.2348 176.256 20.6348 176.589 21.0682C176.756 21.3015 176.923 21.5348 177.089 21.7682C177.256 21.9682 177.423 22.1848 177.589 22.4182V19.0182Z" fill="#056ABB"/>
</svg>
