<svg width="76" height="90" viewBox="0 0 76 90" fill="none" xmlns="http://www.w3.org/2000/svg">
<path fill-rule="evenodd" clip-rule="evenodd" d="M28.1982 18.3866C31.8303 17.3816 35.6901 16.4789 38 16.4789C40.3099 16.4789 44.1697 17.3816 47.8018 18.3866C51.5177 19.4086 55.2637 20.618 57.4664 21.3504C58.3873 21.6599 59.2038 22.2275 59.8221 22.988C60.4403 23.7485 60.8351 24.6711 60.9613 25.6497C62.9565 40.9014 58.3267 52.2048 52.7094 59.6825C50.3274 62.8813 47.4871 65.6982 44.2835 68.0391C43.1757 68.8492 42.002 69.5615 40.7752 70.1683C39.8378 70.618 38.8302 70.9859 38 70.9859C37.1698 70.9859 36.1655 70.618 35.2248 70.1683C33.998 69.5615 32.8243 68.8492 31.7165 68.0391C28.5129 65.6982 25.6727 62.8813 23.2906 59.6825C17.6733 52.2048 13.0435 40.9014 15.0387 25.6497C15.1649 24.6711 15.5597 23.7485 16.1779 22.988C16.7962 22.2275 17.6127 21.6599 18.5336 21.3504C21.7312 20.2835 24.9537 19.2953 28.1982 18.3866ZM33.2977 26.7572C34.5449 25.4517 36.2363 24.7183 38 24.7183C39.7637 24.7183 41.4551 25.4517 42.7023 26.7572C43.9494 28.0626 44.65 29.8332 44.65 31.6794C44.65 33.5256 43.9494 35.2962 42.7023 36.6016C41.4551 37.9071 39.7637 38.6405 38 38.6405C36.2363 38.6405 34.5449 37.9071 33.2977 36.6016C32.0506 35.2962 31.35 33.5256 31.35 31.6794C31.35 29.8332 32.0506 28.0626 33.2977 26.7572ZM29.6875 41.5409H46.3125C47.6353 41.5409 48.9039 42.091 49.8392 43.0701C50.7745 44.0492 51.3 45.3771 51.3 46.7618C51.3 50.646 49.7705 53.7577 47.2701 55.8634C44.8063 57.9343 41.5012 58.9437 38 58.9437C34.4988 58.9437 31.1937 57.9343 28.7299 55.8634C26.2262 53.7577 24.7 50.646 24.7 46.7618C24.7 45.3771 25.2255 44.0492 26.1608 43.0701C27.0961 42.091 28.3647 41.5409 29.6875 41.5409Z" fill="white"/>
<path fill-rule="evenodd" clip-rule="evenodd" d="M38 90C36.8917 90 35.7833 89.806 34.675 89.4179C33.5667 89.0298 32.5771 88.4476 31.7063 87.6714C26.5604 83.0142 22.0083 78.4735 18.05 74.0492C14.0917 69.6248 10.7873 65.3371 8.13675 61.186C5.48308 57.0318 3.46433 53.0344 2.0805 49.1938C0.696668 45.3532 0.00316667 41.6849 0 38.1889C0 26.5459 3.82058 17.2704 11.4618 10.3622C19.1029 3.45407 27.949 0 38 0C48.0542 0 56.9018 3.45407 64.543 10.3622C72.1842 17.2704 76.0032 26.5459 76 38.1889C76 41.6818 75.3065 45.3501 73.9195 49.1938C72.5325 53.0375 70.5138 57.0349 67.8633 61.186C65.2128 65.3371 61.9083 69.6248 57.95 74.0492C53.9917 78.4735 49.4396 83.0142 44.2938 87.6714C43.4229 88.4476 42.4333 89.0298 41.325 89.4179C40.2167 89.806 39.1083 90 38 90ZM28.1982 18.3866C31.8303 17.3816 35.6901 16.4789 38 16.4789C40.3099 16.4789 44.1697 17.3816 47.8018 18.3866C51.5177 19.4086 55.2637 20.618 57.4664 21.3504C58.3873 21.6599 59.2038 22.2275 59.8221 22.988C60.4403 23.7485 60.8351 24.6711 60.9613 25.6497C62.9565 40.9014 58.3267 52.2048 52.7094 59.6825C50.3274 62.8813 47.4871 65.6982 44.2835 68.0391C43.1757 68.8492 42.002 69.5615 40.7752 70.1683C39.8378 70.618 38.8302 70.9859 38 70.9859C37.1698 70.9859 36.1655 70.618 35.2248 70.1683C33.998 69.5615 32.8243 68.8492 31.7165 68.0391C28.5129 65.6982 25.6727 62.8813 23.2906 59.6825C17.6733 52.2048 13.0435 40.9014 15.0387 25.6497C15.1649 24.6711 15.5597 23.7485 16.1779 22.988C16.7962 22.2275 17.6127 21.6599 18.5336 21.3504C21.7312 20.2835 24.9537 19.2953 28.1982 18.3866ZM26.1608 43.0701C27.0961 42.091 28.3647 41.5409 29.6875 41.5409H46.3125C47.6353 41.5409 48.9039 42.091 49.8392 43.0701C50.7745 44.0492 51.3 45.3771 51.3 46.7618C51.3 50.646 49.7705 53.7577 47.2701 55.8634C44.8063 57.9343 41.5012 58.9437 38 58.9437C34.4988 58.9437 31.1937 57.9343 28.7299 55.8634C26.2262 53.7577 24.7 50.646 24.7 46.7618C24.7 45.3771 25.2255 44.0492 26.1608 43.0701Z" fill="#056ABB"/>
<path d="M38 24.7183C36.2363 24.7183 34.5449 25.4517 33.2977 26.7572C32.0506 28.0626 31.35 29.8332 31.35 31.6794C31.35 33.5256 32.0506 35.2962 33.2977 36.6016C34.5449 37.9071 36.2363 38.6405 38 38.6405C39.7637 38.6405 41.4551 37.9071 42.7023 36.6016C43.9494 35.2962 44.65 33.5256 44.65 31.6794C44.65 29.8332 43.9494 28.0626 42.7023 26.7572C41.4551 25.4517 39.7637 24.7183 38 24.7183Z" fill="#056ABB"/>
</svg>
