<svg width="110" height="92" viewBox="0 0 110 92" fill="none" xmlns="http://www.w3.org/2000/svg">
<path d="M55 42C54.475 42 53.95 41.9094 53.425 41.7283C52.9 41.5472 52.4313 41.2755 52.0188 40.9133C49.5813 38.74 47.425 36.621 45.55 34.5563C43.675 32.4916 42.1097 30.4907 40.8542 28.5535C39.5972 26.6149 38.641 24.7494 37.9855 22.9571C37.33 21.1648 37.0015 19.4529 37 17.8215C37 12.3881 38.8098 8.05951 42.4293 4.8357C46.0487 1.6119 50.239 0 55 0C59.7625 0 63.9535 1.6119 67.573 4.8357C71.1925 8.05951 73.0015 12.3881 73 17.8215C73 19.4515 72.6715 21.1634 72.0145 22.9571C71.3575 24.7508 70.4013 26.6163 69.1458 28.5535C67.8903 30.4907 66.325 32.4916 64.45 34.5563C62.575 36.621 60.4187 38.74 57.9812 40.9133C57.5687 41.2755 57.1 41.5472 56.575 41.7283C56.05 41.9094 55.525 42 55 42Z" fill="#056ABB"/>
<path d="M50.357 8.58042C52.0775 8.11143 53.9059 7.69014 55 7.69014C56.0941 7.69014 57.9225 8.11143 59.643 8.58042C61.4031 9.05736 63.1775 9.62173 64.2209 9.96354C64.6572 10.108 65.0439 10.3729 65.3368 10.7278C65.6296 11.0826 65.8166 11.5132 65.8764 11.9699C66.8215 19.0873 64.6284 24.3623 61.9676 27.8518C60.8393 29.3446 59.4939 30.6592 57.9764 31.7516C57.4517 32.1296 56.8957 32.462 56.3146 32.7452C55.8706 32.9551 55.3933 33.1268 55 33.1268C54.6067 33.1268 54.131 32.9551 53.6854 32.7452C53.1043 32.462 52.5483 32.1296 52.0236 31.7516C50.5061 30.6591 49.1607 29.3446 48.0324 27.8518C45.3715 24.3623 43.1785 19.0873 44.1236 11.9699C44.1834 11.5132 44.3704 11.0826 44.6632 10.7278C44.9561 10.3729 45.3428 10.108 45.7791 9.96354C47.2937 9.46563 48.8202 9.00446 50.357 8.58042Z" fill="white"/>
<path d="M55 11.5352C54.1646 11.5352 53.3634 11.8775 52.7726 12.4867C52.1819 13.0959 51.85 13.9222 51.85 14.7837C51.85 15.6453 52.1819 16.4715 52.7726 17.0808C53.3634 17.69 54.1646 18.0322 55 18.0322C55.8354 18.0322 56.6366 17.69 57.2274 17.0808C57.8181 16.4715 58.15 15.6453 58.15 14.7837C58.15 13.9222 57.8181 13.0959 57.2274 12.4867C56.6366 11.8775 55.8354 11.5352 55 11.5352ZM58.9375 19.3858H51.0625C50.4359 19.3858 49.835 19.6425 49.392 20.0994C48.9489 20.5563 48.7 21.176 48.7 21.8222C48.7 23.6348 49.4229 25.0869 50.6089 26.0696C51.776 27.036 53.3415 27.507 55 27.507C56.6585 27.507 58.224 27.036 59.3911 26.0696C60.5755 25.0869 61.3 23.6348 61.3 21.8222C61.3 21.176 61.0511 20.5563 60.608 20.0994C60.165 19.6425 59.5641 19.3858 58.9375 19.3858Z" fill="#056ABB"/>
<path d="M29.7596 60.8706C29.7596 60.8706 29.7727 60.9103 29.7989 60.9896C29.8514 61.0425 29.9038 61.1219 29.9563 61.2277C30.0088 61.307 30.0481 61.3863 30.0744 61.4657C30.1268 61.545 30.1399 61.5847 30.1137 61.5847C29.5103 61.8228 28.9201 62.0872 28.343 62.3782C27.7921 62.6691 27.2018 62.8939 26.5722 63.0526C25.9164 63.2378 25.2999 63.2907 24.7228 63.2113C23.9883 63.132 23.3062 62.8939 22.6766 62.4972C22.5192 62.3914 22.3618 62.2724 22.2044 62.1401C22.0733 61.9815 21.9421 61.836 21.8109 61.7037L21.3781 61.2673C21.2732 61.5583 21.1158 61.8492 20.9059 62.1401C21.0633 62.3253 21.2076 62.5104 21.3387 62.6956C21.4961 62.8543 21.6404 63.0262 21.7716 63.2113C22.0339 63.5552 22.27 63.9122 22.4799 64.2825C22.716 64.6264 22.939 64.9834 23.1488 65.3537C23.3587 65.724 23.5554 66.0943 23.7391 66.4646C23.9227 66.8349 24.1063 67.2184 24.29 67.6151C24.4211 67.9325 24.5392 68.2631 24.6441 68.607C24.7753 68.9243 24.8671 69.255 24.9196 69.5988C25.1032 70.551 25.0245 71.5031 24.6835 72.4553C24.3424 73.381 23.7522 74.0951 22.9127 74.5977C22.3881 74.8886 21.8372 75.087 21.26 75.1928C20.7091 75.2721 20.1451 75.2854 19.568 75.2325C18.781 75.1796 18.0071 75.0209 17.2464 74.7564C16.4856 74.4654 15.7642 74.1216 15.0821 73.7249C14.3476 73.3017 13.6524 72.8256 12.9966 72.2966C12.367 71.7412 11.7637 71.1593 11.1865 70.551C10.5045 69.8368 9.86177 69.0963 9.2584 68.3292C8.65504 67.5622 8.0648 66.7687 7.48767 65.9488C6.88431 65.1024 6.29407 64.2429 5.71694 63.37C5.13981 62.4708 4.5758 61.5715 4.0249 60.6722C3.91997 60.54 3.82816 60.3945 3.74946 60.2358C3.67076 60.0771 3.57894 59.9316 3.47401 59.7994C3.42154 59.6936 3.38219 59.6275 3.35596 59.601C3.2248 59.4423 3.11986 59.2704 3.04116 59.0853C2.93623 58.9266 2.8313 58.7679 2.72637 58.6092C2.62143 58.4505 2.5165 58.2918 2.41157 58.1331C2.3591 58.0802 2.31975 58.0141 2.29352 57.9347C2.24105 57.8554 2.18859 57.7893 2.13612 57.7364C2.13612 57.7099 2.12301 57.6835 2.09677 57.657C1.33601 56.5726 0.719536 55.5014 0.247341 54.4435C0.194874 54.3112 0.142408 54.1922 0.089942 54.0864C-0.0149903 53.8483 -0.0281069 53.7161 0.0505923 53.6897C0.103058 53.6368 0.207991 53.7161 0.365389 53.9277C0.444089 54.0335 0.509671 54.1393 0.562137 54.2451C0.719536 54.4567 0.876934 54.6815 1.03433 54.9195C1.1655 55.1311 1.29666 55.3427 1.42783 55.5543C1.63769 55.8717 1.84756 56.2023 2.05742 56.5462C2.26729 56.8635 2.47715 57.1809 2.68702 57.4983C2.84442 57.7628 3.00181 58.0141 3.15921 58.2521C3.31661 58.4902 3.47401 58.7414 3.63141 59.0059C3.65764 59.0324 3.67076 59.0588 3.67076 59.0853C3.67076 59.0853 3.68387 59.0985 3.71011 59.1249C3.76257 59.2307 3.81504 59.3233 3.86751 59.4027C3.91997 59.482 3.97244 59.5614 4.0249 59.6407C4.261 60.011 4.4971 60.3813 4.7332 60.7516C4.9693 61.1219 5.21851 61.4921 5.48084 61.8624C5.50707 61.8889 5.54642 61.955 5.59889 62.0608C5.65136 62.1401 5.70382 62.2195 5.75629 62.2988C5.83499 62.3782 5.90057 62.4708 5.95304 62.5766C6.0842 62.7617 6.21537 62.9468 6.34653 63.132C6.4777 63.2907 6.60886 63.4626 6.74003 63.6477C6.76626 63.6477 6.77938 63.661 6.77938 63.6874C6.80561 63.7403 6.87119 63.8197 6.97613 63.9255C7.02859 64.0048 7.08106 64.0974 7.13353 64.2032C7.21222 64.2825 7.29092 64.3619 7.36962 64.4412C7.50079 64.5999 7.63195 64.7718 7.76312 64.957C7.92052 65.1157 8.0648 65.2744 8.19597 65.4331C8.27466 65.5389 8.35336 65.6314 8.43206 65.7108C8.51076 65.7901 8.58946 65.8695 8.66816 65.9488C8.72063 66.0017 8.74686 66.0282 8.74686 66.0282C8.79933 66.0811 8.82556 66.1207 8.82556 66.1472C8.85179 66.1736 8.89114 66.2133 8.94361 66.2662C9.10101 66.4249 9.2584 66.5836 9.4158 66.7423C9.5732 66.8745 9.7306 67.02 9.888 67.1787C10.4914 67.7077 11.121 68.2102 11.7768 68.6863C12.4326 69.1624 13.1409 69.5723 13.9017 69.9162C14.6362 70.2071 15.4101 70.4319 16.2233 70.5906C17.0365 70.7493 17.8366 70.7626 18.6236 70.6303C19.1483 70.551 19.6336 70.4055 20.0796 70.1939C20.5255 69.9559 20.9321 69.6517 21.2994 69.2814C21.8765 68.5673 22.2307 67.7474 22.3618 66.8216C22.3881 66.6629 22.4012 66.5175 22.4012 66.3852C22.4012 66.2265 22.4012 66.0811 22.4012 65.9488V65.8298C22.0864 65.6182 21.7191 65.4066 21.2994 65.195C20.7485 64.957 20.1714 64.7983 19.568 64.7189C18.9909 64.6131 18.4006 64.5867 17.7973 64.6396C17.1939 64.8776 16.5643 65.0231 15.9085 65.076C15.2789 65.1289 14.6493 65.0628 14.0197 64.8776C13.9148 64.8247 13.823 64.7322 13.7443 64.5999C13.6656 64.4412 13.6 64.3222 13.5475 64.2429C13.4163 63.9519 13.2852 63.6742 13.154 63.4097C13.0229 63.1452 12.8917 62.8675 12.7605 62.5766C12.6294 62.2856 12.5113 61.9947 12.4064 61.7037C12.3014 61.4128 12.1965 61.1219 12.0916 60.8309C12.0916 60.8574 12.0785 60.8309 12.0522 60.7516C12.0522 60.6722 12.0391 60.5796 12.0129 60.4739C11.9866 60.3681 11.9604 60.2755 11.9342 60.1961C11.9342 60.0903 11.9473 60.0374 11.9735 60.0374C12.1047 60.0903 12.2359 60.13 12.367 60.1565C12.5244 60.1829 12.6687 60.2094 12.7999 60.2358C13.5606 60.3416 14.3083 60.2887 15.0428 60.0771C15.8036 59.8391 16.4987 59.4952 17.1283 59.0456C17.7317 58.6224 18.2564 58.1199 18.7023 57.538C19.1483 56.9297 19.4631 56.2684 19.6467 55.5543V55.5146C19.6205 55.4882 19.5942 55.475 19.568 55.475C19.568 55.475 19.5549 55.4617 19.5287 55.4353C19.5024 55.4088 19.4762 55.3956 19.45 55.3956C18.6892 54.9724 17.8891 54.7741 17.0496 54.8005C16.2102 54.8005 15.3969 54.9724 14.61 55.3163C13.823 55.6601 13.1016 56.123 12.4457 56.7049C11.8161 57.2867 11.3177 57.948 10.9504 58.6885C10.9504 58.715 10.9111 58.6885 10.8324 58.6092C10.7799 58.5298 10.7275 58.4505 10.675 58.3711C10.6225 58.2918 10.5701 58.2125 10.5176 58.1331C10.4914 58.0538 10.4782 58.0273 10.4782 58.0538C10.3471 57.7628 10.2159 57.4851 10.0847 57.2206C9.95358 56.9561 9.82242 56.6784 9.69125 56.3875C9.56009 56.0965 9.44204 55.8056 9.3371 55.5146C9.23217 55.2237 9.12724 54.9328 9.02231 54.6418C8.99607 54.5625 8.95672 54.4435 8.90426 54.2848C8.85179 54.0996 8.85179 53.9674 8.90426 53.888C9.19282 53.3326 9.56009 52.8168 10.006 52.3407C10.452 51.8382 10.9373 51.415 11.462 51.0712C12.0129 50.7274 12.59 50.4629 13.1934 50.2777C13.823 50.0926 14.4526 50 15.0821 50C15.9478 50 16.7479 50.2116 17.4825 50.6348C17.9284 50.8993 18.3088 51.177 18.6236 51.4679C18.8335 51.6795 19.0171 51.9176 19.1745 52.1821C19.3581 52.4465 19.5287 52.7243 19.6861 53.0152C20.0533 53.6764 20.3943 54.3641 20.7091 55.0782C21.0239 55.7659 21.2863 56.48 21.4961 57.2206C21.6798 57.7231 21.7978 58.2786 21.8503 58.8869C21.8765 58.9663 21.8896 59.0853 21.8896 59.244C22.7291 59.244 23.5423 59.0588 24.3293 58.6885C25.1425 58.2918 25.9558 57.9215 26.769 57.5777C26.8477 57.5512 26.9526 57.6173 27.0838 57.776C27.2412 57.9347 27.3461 58.0273 27.3986 58.0538C27.6084 58.2654 27.8052 58.4902 27.9888 58.7282C28.1987 58.9663 28.4086 59.1911 28.6184 59.4027C28.8283 59.6407 29.025 59.8787 29.2087 60.1168C29.3923 60.3548 29.5759 60.6061 29.7596 60.8706ZM2.21482 57.8157V57.8554C2.26729 57.9083 2.30664 57.9612 2.33287 58.0141C2.3591 58.0405 2.31975 57.9744 2.21482 57.8157Z" fill="#056ABB"/>
<path d="M34.1698 54.7212C34.2485 54.8799 34.3141 55.0121 34.3665 55.1179C34.4715 55.3559 34.4977 55.475 34.4452 55.475H30.6677C30.6939 56.1891 30.6939 56.9032 30.6677 57.6173C30.6677 58.305 30.6808 59.0059 30.707 59.7201C30.707 60.3548 30.6939 60.9896 30.6677 61.6244C30.6677 62.2592 30.6808 62.8939 30.707 63.5287C30.7333 64.1371 30.7595 64.7586 30.7857 65.3934C30.8382 66.0282 30.8644 66.6497 30.8644 67.2581C30.8644 67.9457 30.8513 68.6466 30.8251 69.3608C30.7988 70.0484 30.6808 70.7361 30.4709 71.4238C30.3135 71.9263 30.0774 72.4024 29.7626 72.852C29.4741 73.2752 29.0543 73.5397 28.5034 73.6455H28.4641L30.7464 76.1846L30.589 76.3433L27.6378 73.1298C27.1918 72.7859 26.7852 72.4156 26.4179 72.0189C26.208 71.8073 25.9982 71.5957 25.7883 71.3841C25.5785 71.1725 25.3686 70.9477 25.1587 70.7097C25.1587 70.7097 25.1325 70.6832 25.08 70.6303C25.0276 70.551 24.9751 70.4716 24.9226 70.3923C24.8702 70.3129 24.8177 70.2336 24.7652 70.1542C24.7128 70.0749 24.6996 70.0352 24.7259 70.0352C25.1194 69.9559 25.4473 69.7972 25.7096 69.5591C25.972 69.3211 26.1949 69.0434 26.3786 68.726C26.536 68.3821 26.6671 68.0251 26.7721 67.6548C26.8508 67.2845 26.9163 66.9274 26.9688 66.5836C27.0737 65.8959 27.1262 65.195 27.1262 64.4809C27.1524 63.7403 27.1393 63.013 27.0869 62.2988C27.0606 61.7699 27.0344 61.2409 27.0082 60.7119C26.9557 60.1565 26.9295 59.6143 26.9295 59.0853V55.475H22.9551C22.8502 55.475 22.7453 55.4088 22.6404 55.2766C22.5092 55.1179 22.4174 55.0121 22.3649 54.9592C21.9976 54.5096 21.6435 54.007 21.3025 53.4516C20.9352 52.8962 20.6204 52.3672 20.3581 51.8647C20.2794 51.7324 20.2138 51.6134 20.1613 51.5076C20.0564 51.2431 20.0302 51.1109 20.0826 51.1109H26.8901C26.8901 50.9786 26.8901 50.8596 26.8901 50.7538C26.8901 50.6216 26.877 50.4893 26.8508 50.3571C26.8508 50.3306 26.8901 50.3438 26.9688 50.3967C27.0475 50.4232 27.1262 50.4761 27.2049 50.5554C27.3098 50.6083 27.3885 50.6612 27.441 50.7141C27.5197 50.7406 27.5591 50.7538 27.5591 50.7538C27.6378 50.8331 27.782 50.9522 27.9919 51.1109H31.5727C31.6776 51.1109 31.7826 51.1902 31.8875 51.3489C32.0187 51.5076 32.1105 51.6134 32.163 51.6663C32.3466 51.9043 32.5171 52.1556 32.6745 52.4201C32.8581 52.6581 33.0418 52.9094 33.2254 53.1739C33.3828 53.4119 33.5402 53.6632 33.6976 53.9277C33.8812 54.1922 34.0386 54.4567 34.1698 54.7212Z" fill="#056ABB"/>
<path d="M42.0474 54.7212C42.1261 54.8799 42.1917 55.0121 42.2442 55.1179C42.3491 55.3559 42.3753 55.475 42.3228 55.475H38.5453C38.5715 56.1891 38.5715 56.9032 38.5453 57.6173C38.5453 58.305 38.5584 59.0059 38.5846 59.7201C38.5846 60.3548 38.5715 60.9896 38.5453 61.6244C38.5453 62.2592 38.5584 62.8939 38.5846 63.5287C38.6109 64.1371 38.6371 64.7586 38.6633 65.3934C38.7158 66.0282 38.742 66.6497 38.742 67.2581C38.742 67.9457 38.7289 68.6466 38.7027 69.3608C38.6765 70.0484 38.5584 70.7361 38.3485 71.4238C38.1911 71.9263 37.955 72.4024 37.6402 72.852C37.3517 73.2752 36.932 73.5397 36.3811 73.6455H36.3417L38.624 76.1846L38.4666 76.3433L35.5154 73.1298C35.0694 72.7859 34.6628 72.4156 34.2955 72.0189C34.0857 71.8073 33.8758 71.5957 33.6659 71.3841C33.4561 71.1725 33.2462 70.9477 33.0363 70.7097C33.0363 70.7097 33.0101 70.6832 32.9576 70.6303C32.9052 70.551 32.8527 70.4716 32.8002 70.3923C32.7478 70.3129 32.6953 70.2336 32.6428 70.1542C32.5904 70.0749 32.5773 70.0352 32.6035 70.0352C32.997 69.9559 33.3249 69.7972 33.5872 69.5591C33.8496 69.3211 34.0725 69.0434 34.2562 68.726C34.4136 68.3821 34.5447 68.0251 34.6497 67.6548C34.7284 67.2845 34.794 66.9274 34.8464 66.5836C34.9514 65.8959 35.0038 65.195 35.0038 64.4809C35.0301 63.7403 35.0169 63.013 34.9645 62.2988C34.9382 61.7699 34.912 61.2409 34.8858 60.7119C34.8333 60.1565 34.8071 59.6143 34.8071 59.0853V55.475H30.8328C30.7278 55.475 30.6229 55.4088 30.518 55.2766C30.3868 55.1179 30.295 55.0121 30.2425 54.9592C29.8752 54.5096 29.5211 54.007 29.1801 53.4516C28.8128 52.8962 28.498 52.3672 28.2357 51.8647C28.157 51.7324 28.0914 51.6134 28.0389 51.5076C27.934 51.2431 27.9078 51.1109 27.9602 51.1109H34.7677C34.7677 50.9786 34.7677 50.8596 34.7677 50.7538C34.7677 50.6216 34.7546 50.4893 34.7284 50.3571C34.7284 50.3306 34.7677 50.3438 34.8464 50.3967C34.9251 50.4232 35.0038 50.4761 35.0825 50.5554C35.1874 50.6083 35.2661 50.6612 35.3186 50.7141C35.3973 50.7406 35.4367 50.7538 35.4367 50.7538C35.5154 50.8331 35.6596 50.9522 35.8695 51.1109H39.4503C39.5553 51.1109 39.6602 51.1902 39.7651 51.3489C39.8963 51.5076 39.9881 51.6134 40.0406 51.6663C40.2242 51.9043 40.3947 52.1556 40.5521 52.4201C40.7357 52.6581 40.9194 52.9094 41.103 53.1739C41.2604 53.4119 41.4178 53.6632 41.5752 53.9277C41.7588 54.1922 41.9162 54.4567 42.0474 54.7212Z" fill="#056ABB"/>
<path d="M104.464 88.8405C104.621 89.0257 104.66 89.1579 104.582 89.2373C104.529 89.2902 104.411 89.2373 104.227 89.0786C104.07 88.9199 103.978 88.8141 103.952 88.7612C103.795 88.6025 103.637 88.4438 103.48 88.2851C103.349 88.1264 103.204 87.9677 103.047 87.809C102.995 87.7826 102.942 87.7561 102.89 87.7297C102.863 87.7032 102.824 87.6768 102.772 87.6503C102.299 87.3858 101.775 87.1742 101.198 87.0155C101.014 86.9626 100.83 86.923 100.647 86.8965C100.489 86.8965 100.319 86.8833 100.135 86.8568C99.2957 86.7775 98.4693 86.804 97.6561 86.9362C96.8691 87.0949 96.0952 87.3197 95.3345 87.6107C94.4163 87.9809 93.5113 88.4041 92.6194 88.8802C91.7537 89.3563 90.8617 89.8191 89.9436 90.2688C89.0517 90.692 88.1466 91.049 87.2285 91.34C86.3365 91.6309 85.3921 91.8293 84.3953 91.9351C82.4803 92.0938 80.6177 91.9615 78.8076 91.5383C76.9189 91.1152 75.0957 90.4804 73.338 89.634C71.5804 88.7876 69.9146 87.809 68.3406 86.6982C66.6617 85.4815 65.0484 84.1987 63.5006 82.8498C61.9529 81.5273 60.392 80.1917 58.818 78.8428C58.4245 78.4989 58.031 78.1683 57.6375 77.8509C57.244 77.5335 56.8505 77.2161 56.4571 76.8988L55.2766 75.9466C55.2503 75.9466 55.2241 75.9334 55.1979 75.9069C55.1716 75.8805 55.1454 75.8672 55.1192 75.8672C55.0929 75.8408 55.0667 75.8143 55.0405 75.7879C54.9355 75.7085 54.8306 75.6424 54.7257 75.5895C54.647 75.5102 54.5551 75.4441 54.4502 75.3912C54.3715 75.3118 54.2797 75.2457 54.1748 75.1928C53.3878 74.6374 52.5746 74.1216 51.7351 73.6455C50.8956 73.143 50.0037 72.7859 49.0593 72.5743C48.4035 72.4156 47.7477 72.3627 47.0918 72.4156C46.4622 72.4421 45.8458 72.614 45.2424 72.9314C45.1637 72.9843 45.0457 72.9314 44.8883 72.7727C44.7571 72.614 44.6653 72.5082 44.6128 72.4553C44.4029 72.2437 44.1931 72.0189 43.9832 71.7809C43.7996 71.5428 43.6028 71.3048 43.393 71.0667C43.3405 71.0403 43.2225 70.9213 43.0388 70.7097C42.8814 70.4716 42.7109 70.2336 42.5273 69.9955C42.3174 69.731 42.1469 69.493 42.0157 69.2814C41.8846 69.0698 41.8452 68.9508 41.8977 68.9243C42.5797 68.5541 43.2356 68.197 43.8652 67.8532C44.521 67.4829 45.1637 67.1126 45.7933 66.7423C48.0756 65.3669 50.2529 63.9122 52.3253 62.3782C52.8238 62.0079 53.3091 61.6508 53.7813 61.307C54.2535 60.9367 54.6994 60.54 55.1192 60.1168C55.4077 59.8258 55.6438 59.5085 55.8275 59.1646C56.0373 58.8208 56.1947 58.4637 56.2997 58.0934C55.4864 57.9347 54.6207 57.9215 53.7026 58.0538C52.1024 58.2654 50.594 58.8076 49.1774 59.6804C47.787 60.5267 46.6459 61.6244 45.754 62.9733C45.7015 63.0262 45.5834 62.9733 45.3998 62.8146C45.2424 62.6559 45.1506 62.5633 45.1244 62.5369C44.9145 62.3253 44.7046 62.1005 44.4948 61.8624C44.2849 61.6244 44.075 61.3863 43.8652 61.1483C43.4979 60.6987 43.1306 60.2094 42.7634 59.6804C42.6847 59.601 42.6191 59.5085 42.5666 59.4027C42.4092 59.1911 42.3568 59.0456 42.4092 58.9663C43.3536 57.538 44.5997 56.3742 46.1474 55.475H39.6154C39.5105 55.475 39.4055 55.3956 39.3006 55.2369C39.1694 55.0782 39.0776 54.9724 39.0252 54.9195C38.6054 54.417 38.2513 53.9277 37.9627 53.4516C37.7791 53.1871 37.6086 52.9226 37.4512 52.6581C37.2938 52.3936 37.1495 52.1292 37.0183 51.8647C36.9396 51.7324 36.8741 51.6134 36.8216 51.5076C36.7167 51.2431 36.6904 51.1109 36.7429 51.1109H60.1166C60.2215 51.1109 60.3264 51.1902 60.4314 51.3489C60.5363 51.4812 60.615 51.5737 60.6675 51.6266C60.8773 51.8647 61.061 52.1159 61.2184 52.3804C61.402 52.6185 61.5856 52.8697 61.7692 53.1342C61.9266 53.3987 62.084 53.6632 62.2414 53.9277C62.3988 54.1657 62.5562 54.4302 62.7136 54.7212L62.871 55.1179C62.976 55.3559 63.0022 55.475 62.9497 55.475H55.7488C55.9586 55.6866 56.1554 55.8982 56.339 56.1097C56.5489 56.3213 56.7587 56.5329 56.9686 56.7445C57.3096 57.1148 57.6244 57.4983 57.913 57.8951C58.2278 58.2654 58.5295 58.6621 58.818 59.0853C59.0279 59.3762 59.2115 59.6804 59.3689 59.9978C59.5263 60.3152 59.6313 60.659 59.6837 61.0293C59.7624 61.6112 59.6837 62.1534 59.4476 62.6559C59.2115 63.132 58.9098 63.5816 58.5426 64.0048C58.1229 64.4544 57.6638 64.8776 57.1653 65.2744C56.6669 65.6447 56.1685 66.0149 55.6701 66.3852C55.1192 66.782 54.5683 67.1787 54.0174 67.5754C53.4665 67.9722 52.9025 68.3557 52.3253 68.726C51.9056 69.0169 51.4859 69.2946 51.0662 69.5591C50.6464 69.8236 50.2136 70.0881 49.7676 70.3526C50.8694 71.0403 51.9318 71.7941 52.9549 72.614C54.0043 73.4339 55.0273 74.2671 56.0242 75.1134C57.0211 75.9598 58.0179 76.8194 59.0148 77.6922C60.0116 78.565 61.0216 79.4246 62.0447 80.271C62.5694 80.7207 63.0678 81.1306 63.54 81.5009C64.0384 81.8712 64.55 82.2415 65.0746 82.6118C65.5993 82.9821 66.1239 83.3391 66.6486 83.683C67.1733 84.0268 67.711 84.3574 68.2619 84.6748C69.3637 85.2831 70.4786 85.8253 71.6067 86.3014C72.7609 86.7775 73.9414 87.161 75.1481 87.452C76.2237 87.7164 77.2992 87.8884 78.3748 87.9677C79.4766 88.0471 80.5784 88.0074 81.6802 87.8487C82.7033 87.69 83.687 87.4255 84.6314 87.0552C85.602 86.7114 86.5464 86.3014 87.4646 85.8253C88.3827 85.3492 89.3009 84.8599 90.219 84.3574C91.1372 83.8813 92.0947 83.4978 93.0916 83.2069C93.8785 82.9953 94.6787 82.863 95.4919 82.8101C96.3313 82.7572 97.1577 82.8366 97.9709 83.0482C98.3644 83.154 98.7317 83.273 99.0727 83.4052C99.44 83.5639 99.7941 83.7623 100.135 84.0003C100.424 84.2119 100.699 84.4368 100.961 84.6748C101.224 84.9128 101.486 85.1641 101.748 85.4286C102.64 86.3808 103.467 87.4123 104.227 88.5231L104.464 88.8405Z" fill="#056ABB"/>
<path d="M87.182 54.7212C87.182 54.7212 87.1952 54.7608 87.2214 54.8402C87.2476 54.9195 87.2739 55.0121 87.3001 55.1179C87.3526 55.1973 87.3919 55.2766 87.4181 55.3559C87.4444 55.4353 87.4444 55.475 87.4181 55.475H74.8263C74.7213 55.475 74.6164 55.3956 74.5115 55.2369C74.4065 55.0782 74.3278 54.9724 74.2754 54.9195C73.9081 54.4699 73.5408 53.9806 73.1736 53.4516C73.0162 53.1871 72.8588 52.9226 72.7014 52.6581C72.544 52.3936 72.3866 52.1292 72.2292 51.8647C72.1767 51.7324 72.1242 51.6134 72.0718 51.5076C71.9669 51.2431 71.9275 51.1109 71.9537 51.1109H84.5456C84.6768 51.1109 84.7948 51.1902 84.8998 51.3489C85.0047 51.4812 85.0834 51.5737 85.1359 51.6266C85.5031 52.0763 85.8573 52.5788 86.1983 53.1342C86.5131 53.6103 86.841 54.1393 87.182 54.7212ZM79.1154 58.5695C79.1416 58.596 79.2728 58.6885 79.5089 58.8472C79.745 59.0059 79.9811 59.1778 80.2172 59.363C80.4795 59.5481 80.7025 59.7333 80.8861 59.9184C81.096 60.0771 81.1878 60.1697 81.1615 60.1961C80.7943 60.5664 80.4008 60.9103 79.9811 61.2277C79.5876 61.545 79.1547 61.8095 78.6825 62.0211C78.4464 62.1005 78.1972 62.1666 77.9349 62.2195C77.6988 62.2724 77.4496 62.2724 77.1872 62.2195C76.6626 62.1666 76.1641 62.0079 75.6919 61.7434C75.2198 61.4789 74.7607 61.2144 74.3147 60.9499C74.0786 60.8177 73.8294 60.6722 73.5671 60.5135C73.331 60.3548 73.108 60.1961 72.8981 60.0374C72.5046 60.4871 72.0718 60.8838 71.5996 61.2277C71.2323 61.5186 70.8388 61.7963 70.4191 62.0608C70.0256 62.3253 69.6321 62.5898 69.2386 62.8543C68.3991 63.4097 67.6515 64.0445 66.9957 64.7586C66.3136 65.4463 65.7365 66.253 65.2643 67.1787C64.8183 68.078 64.674 69.0301 64.8314 70.0352C64.8577 70.141 64.8708 70.2468 64.8708 70.3526C64.897 70.4584 64.9364 70.5642 64.9889 70.67C65.1462 70.7229 65.2905 70.7626 65.4217 70.789C65.5791 70.8155 65.7365 70.8419 65.8939 70.8684C66.2612 70.9213 66.6153 70.9345 66.9563 70.908C67.2974 70.8816 67.6253 70.8022 67.9401 70.67C67.9401 70.4055 67.9401 70.1542 67.9401 69.9162C67.9401 69.6781 67.9663 69.4269 68.0188 69.1624C68.0975 68.3954 68.2549 67.6548 68.491 66.9407C68.6221 66.5704 68.7795 66.2133 68.9632 65.8695C69.1468 65.4992 69.3698 65.1686 69.6321 64.8776C69.8944 64.5867 70.1699 64.3619 70.4584 64.2032C70.7732 64.018 71.1143 63.899 71.4815 63.8461C71.7176 63.8197 71.9537 63.8197 72.1898 63.8461C72.2948 63.8726 72.439 63.9519 72.6227 64.0842C72.7801 64.1635 72.9112 64.2561 73.0162 64.3619C73.2785 64.5735 73.5277 64.7851 73.7638 64.9967C73.9999 65.2082 74.2229 65.4198 74.4328 65.6314C74.6689 65.843 74.8918 66.0678 75.1017 66.3059C75.3378 66.5175 75.5608 66.7423 75.7706 66.9803C75.8493 67.1126 75.9149 67.2184 75.9674 67.2977C76.0461 67.3771 76.1248 67.4829 76.2035 67.6151C76.2297 67.6416 76.2428 67.668 76.2428 67.6945C76.2428 67.7209 76.256 67.7474 76.2822 67.7738C76.3084 67.9854 76.3084 68.1838 76.2822 68.3689C76.2035 68.7921 76.033 69.2285 75.7706 69.6781C75.4821 70.2071 75.1542 70.7229 74.7869 71.2254C74.4459 71.728 74.0786 72.204 73.6851 72.6537C73.5277 72.8388 73.3703 73.024 73.2129 73.2091C73.0555 73.3678 72.885 73.5397 72.7014 73.7249C72.3341 73.9894 72.0062 74.1745 71.7176 74.2803C71.7176 74.7564 71.757 75.206 71.8357 75.6292C71.9931 76.4491 72.2292 77.269 72.544 78.089C72.6227 78.2741 72.7014 78.4593 72.7801 78.6444C72.885 78.8295 72.9768 79.0147 73.0555 79.1998C73.1867 79.2527 73.3179 79.2792 73.449 79.2792C73.5802 79.3056 73.7113 79.3321 73.8425 79.3585C75.2066 79.4908 76.3871 79.1469 77.384 78.327C77.4364 78.2741 77.5545 78.3138 77.7381 78.446C77.948 78.6047 78.066 78.6973 78.0923 78.7237C78.3284 78.9089 78.5514 79.1073 78.7612 79.3188C78.9973 79.5304 79.2334 79.742 79.4695 79.9536C79.4957 79.9801 79.6007 80.0859 79.7843 80.271C79.9942 80.4562 80.204 80.6678 80.4139 80.9058C80.6238 81.1438 80.8074 81.3687 80.9648 81.5802C81.1484 81.7918 81.214 81.9109 81.1615 81.9373C80.5582 82.4398 79.863 82.7705 79.076 82.9292C78.289 83.0878 77.5151 83.0482 76.7544 82.8101C76.256 82.6779 75.7575 82.4398 75.2591 82.096C74.7869 81.7786 74.3278 81.4216 73.8819 81.0248C73.4621 80.6545 73.0424 80.271 72.6227 79.8743C72.0193 79.266 71.4291 78.6312 70.8519 77.9699C70.301 77.3352 69.8157 76.6343 69.396 75.8672C69.2648 75.6292 69.1337 75.3779 69.0025 75.1134C68.8976 74.8489 68.7926 74.5845 68.6877 74.32C68.2418 74.1877 67.822 74.0158 67.4285 73.8042C67.035 73.5662 66.6546 73.3017 66.2874 73.0107C65.8152 72.6669 65.3561 72.2966 64.9101 71.8999C64.4904 71.5031 64.0707 71.0932 63.651 70.67C63.3624 70.3526 63.0738 70.0352 62.7853 69.7178C62.4967 69.374 62.2213 69.0169 61.9589 68.6466C61.7228 68.2763 61.5261 67.8928 61.3687 67.4961C61.2113 67.0729 61.1063 66.6365 61.0539 66.1869C60.9489 65.1553 61.1588 64.19 61.6835 63.2907C62.2081 62.365 62.8115 61.5583 63.4936 60.8706C64.1494 60.2358 64.897 59.6275 65.7365 59.0456C65.9201 58.9398 66.0906 58.834 66.248 58.7282C66.4317 58.6224 66.6153 58.5034 66.7989 58.3711C66.7202 58.2918 66.6415 58.2125 66.5628 58.1331C66.4841 58.0273 66.4054 57.9347 66.3267 57.8554C66.1169 57.5909 65.9201 57.3264 65.7365 57.0619C65.5529 56.771 65.4086 56.4668 65.3036 56.1494C65.1462 55.7262 65.0282 55.2898 64.9495 54.8402C64.8446 54.3906 64.779 53.9145 64.7528 53.4119C64.7265 52.9094 64.8183 52.4333 65.0282 51.9837C65.1594 51.6398 65.3692 51.3092 65.6578 50.9918C65.9726 50.6745 66.3136 50.4496 66.6809 50.3174C67.0219 50.1851 67.3498 50.1587 67.6646 50.238C67.9794 50.3174 68.2811 50.4629 68.5697 50.6745C68.9107 50.9125 69.2517 51.177 69.5928 51.4679C70.3273 52.1027 71.0356 52.7772 71.7176 53.4913C71.9537 53.7558 72.1767 54.0203 72.3866 54.2848C72.5964 54.5492 72.7932 54.8402 72.9768 55.1576C73.3178 55.7659 73.5277 56.4536 73.6064 57.2206C73.6589 57.5644 73.6589 57.9083 73.6064 58.2521C73.5802 58.596 73.5015 58.9266 73.3703 59.244C73.3441 59.2704 73.331 59.2969 73.331 59.3233C73.331 59.3498 73.3179 59.3762 73.2916 59.4027H73.449C74.1311 59.3233 74.7344 59.0853 75.2591 58.6885C75.81 58.2653 76.3215 57.8289 76.7937 57.3793C76.8462 57.3264 76.9774 57.3529 77.1872 57.4587C77.3971 57.5644 77.5151 57.6173 77.5414 57.6173C77.8299 57.776 78.0923 57.9347 78.3284 58.0934C78.5907 58.2521 78.853 58.4108 79.1154 58.5695ZM72.5046 64.2825C72.4522 64.2032 72.4259 64.1767 72.4259 64.2032C72.4522 64.2032 72.4784 64.2296 72.5046 64.2825ZM69.1599 54.9592C68.9238 55.2502 68.7533 55.5808 68.6484 55.9511C68.5697 56.3213 68.5303 56.6916 68.5303 57.0619C68.7926 56.8239 69.0156 56.5726 69.1993 56.3081C69.4091 56.0172 69.5796 55.713 69.7108 55.3956C69.7633 55.2105 69.8026 55.0253 69.8288 54.8402C69.8551 54.655 69.8813 54.4567 69.9076 54.2451C69.619 54.4302 69.3698 54.6683 69.1599 54.9592Z" fill="#056ABB"/>
<path d="M84.6249 54.7212C84.7036 54.8799 84.7692 55.0121 84.8217 55.1179C84.9266 55.3559 84.9528 55.475 84.9004 55.475H81.1228C81.149 56.1891 81.149 56.9032 81.1228 57.6173C81.1228 58.305 81.1359 59.0059 81.1622 59.7201C81.1622 60.3548 81.149 60.9896 81.1228 61.6244C81.1228 62.2592 81.1359 62.8939 81.1622 63.5287C81.1884 64.1371 81.2146 64.7586 81.2409 65.3934C81.2933 66.0282 81.3196 66.6497 81.3196 67.2581C81.3196 67.9457 81.3064 68.6466 81.2802 69.3608C81.254 70.0484 81.1359 70.7361 80.9261 71.4238C80.7687 71.9263 80.5326 72.4024 80.2178 72.852C79.9292 73.2752 79.5095 73.5397 78.9586 73.6455H78.9192L81.2015 76.1846L81.0441 76.3433L78.0929 73.1298C77.6469 72.7859 77.2403 72.4156 76.873 72.0189C76.6632 71.8073 76.4533 71.5957 76.2435 71.3841C76.0336 71.1725 75.8237 70.9477 75.6139 70.7097C75.6139 70.7097 75.5876 70.6832 75.5352 70.6303C75.4827 70.551 75.4302 70.4716 75.3778 70.3923C75.3253 70.3129 75.2728 70.2336 75.2204 70.1542C75.1679 70.0749 75.1548 70.0352 75.181 70.0352C75.5745 69.9559 75.9024 69.7972 76.1648 69.5591C76.4271 69.3211 76.6501 69.0434 76.8337 68.726C76.9911 68.3821 77.1223 68.0251 77.2272 67.6548C77.3059 67.2845 77.3715 66.9274 77.4239 66.5836C77.5289 65.8959 77.5813 65.195 77.5813 64.4809C77.6076 63.7403 77.5945 63.013 77.542 62.2988C77.5158 61.7699 77.4895 61.2409 77.4633 60.7119C77.4108 60.1565 77.3846 59.6143 77.3846 59.0853V55.475H73.4103C73.3053 55.475 73.2004 55.4088 73.0955 55.2766C72.9643 55.1179 72.8725 55.0121 72.82 54.9592C72.4528 54.5096 72.0986 54.007 71.7576 53.4516C71.3903 52.8962 71.0755 52.3672 70.8132 51.8647C70.7345 51.7324 70.6689 51.6134 70.6165 51.5076C70.5115 51.2431 70.4853 51.1109 70.5378 51.1109H77.3452C77.3452 50.9786 77.3452 50.8596 77.3452 50.7538C77.3452 50.6216 77.3321 50.4893 77.3059 50.3571C77.3059 50.3306 77.3452 50.3438 77.4239 50.3967C77.5026 50.4232 77.5813 50.4761 77.66 50.5554C77.765 50.6083 77.8437 50.6612 77.8961 50.7141C77.9748 50.7406 78.0142 50.7538 78.0142 50.7538C78.0929 50.8331 78.2372 50.9522 78.447 51.1109H82.0279C82.1328 51.1109 82.2377 51.1902 82.3426 51.3489C82.4738 51.5076 82.5656 51.6134 82.6181 51.6663C82.8017 51.9043 82.9722 52.1556 83.1296 52.4201C83.3133 52.6581 83.4969 52.9094 83.6805 53.1739C83.8379 53.4119 83.9953 53.6632 84.1527 53.9277C84.3364 54.1922 84.4938 54.4567 84.6249 54.7212Z" fill="#056ABB"/>
<path d="M109.698 54.8005C109.777 54.9592 109.843 55.0915 109.895 55.1973C110 55.4353 110.026 55.5543 109.974 55.5543C108.924 55.5543 107.455 55.5543 105.567 55.5543C103.678 55.5543 101.619 55.5411 99.3887 55.5146C99.415 55.832 99.4281 56.1494 99.4281 56.4668C99.4281 56.7578 99.4281 57.0487 99.4281 57.3396C100.084 57.2074 100.7 57.2867 101.278 57.5777C101.855 57.8686 102.366 58.2389 102.812 58.6885C103.258 59.1382 103.665 59.6275 104.032 60.1565C104.425 60.659 104.806 61.1748 105.173 61.7037C105.383 62.074 105.593 62.4443 105.803 62.8146C106.039 63.1584 106.236 63.5287 106.393 63.9255C106.734 64.6925 106.944 65.5256 107.023 66.4249C107.075 67.2713 107.036 68.1176 106.905 68.964C106.773 69.8104 106.563 70.6303 106.275 71.4238C106.039 72.1379 105.698 72.7991 105.252 73.4075C105.121 73.6191 104.989 73.8174 104.858 74.0026C104.727 74.1877 104.583 74.3596 104.425 74.5183C104.242 74.7035 104.045 74.8754 103.835 75.0341C103.652 75.1663 103.442 75.2854 103.206 75.3912C103.127 75.4176 103.009 75.3383 102.851 75.1531C102.72 74.968 102.642 74.8754 102.615 74.8754C102.196 74.3729 101.815 73.8703 101.474 73.3678C101.448 73.3413 101.356 73.2223 101.199 73.0107C101.068 72.7727 100.91 72.5214 100.727 72.2569C100.569 71.966 100.425 71.7147 100.294 71.5031C100.189 71.2651 100.163 71.1328 100.215 71.1064C100.635 70.9213 101.015 70.67 101.356 70.3526C101.435 70.2733 101.5 70.1939 101.553 70.1146C101.632 70.0088 101.71 69.9162 101.789 69.8368C101.842 69.731 101.894 69.6385 101.946 69.5591C102.025 69.4533 102.091 69.3608 102.143 69.2814C102.537 68.7789 102.851 68.2234 103.088 67.6151C103.376 66.9539 103.599 66.2662 103.757 65.5521C103.914 64.8115 104.019 64.0709 104.071 63.3304C104.071 62.8014 104.032 62.2724 103.953 61.7434C103.927 61.7434 103.901 61.7434 103.875 61.7434C103.875 61.717 103.848 61.7037 103.796 61.7037C102.878 61.4392 102.051 61.5715 101.317 62.1005C100.609 62.6295 99.979 63.2642 99.4281 64.0048C99.4281 64.0577 99.4281 64.1106 99.4281 64.1635C99.4543 64.19 99.4674 64.2296 99.4674 64.2825C99.4937 64.9173 99.5199 65.5521 99.5461 66.1869C99.5724 66.7952 99.5986 67.4035 99.6248 68.0119C99.6248 68.6995 99.5986 69.4004 99.5461 70.1146C99.5199 70.8022 99.415 71.4899 99.2313 72.1776C99.0739 72.7066 98.8378 73.1959 98.523 73.6455C98.2345 74.0687 97.8016 74.3332 97.2245 74.439H97.1851L99.5068 76.9384L99.31 77.0971L96.3588 73.8836L95.1783 72.8124C94.9684 72.6008 94.7586 72.3892 94.5487 72.1776C94.3389 71.9395 94.1421 71.7147 93.9585 71.5031C93.906 71.5031 93.8667 71.5164 93.8404 71.5428C93.8404 71.5428 93.8142 71.5428 93.7617 71.5428C93.342 71.6751 92.9354 71.7147 92.5419 71.6618C92.1746 71.5825 91.8074 71.4502 91.4401 71.2651C91.0991 71.0799 90.7712 70.8419 90.4564 70.551C90.1678 70.26 89.9055 69.9691 89.6694 69.6781C88.8824 68.7789 88.1741 67.8267 87.5445 66.8216C87.0461 66.0282 86.6132 65.2611 86.2459 64.5206C86.0623 64.1238 85.8918 63.7139 85.7344 63.2907C85.6032 62.8675 85.5114 62.4311 85.459 61.9815C85.4065 61.6376 85.3803 61.2938 85.3803 60.9499C85.4065 60.6061 85.459 60.2623 85.5377 59.9184C85.7475 59.2836 86.0361 58.7282 86.4033 58.2521C87.1903 57.2206 88.2265 56.4139 89.512 55.832C89.7743 55.7262 90.0891 55.6072 90.4564 55.475H84.003C83.8981 55.475 83.7932 55.4088 83.6882 55.2766C83.5571 55.1179 83.4652 55.0121 83.4128 54.9592C83.2029 54.6947 83.0193 54.4435 82.8619 54.2054C82.6782 53.9674 82.5077 53.7161 82.3503 53.4516C81.9831 52.8962 81.6683 52.3672 81.4059 51.8647C81.3272 51.7324 81.2617 51.6134 81.2092 51.5076C81.1043 51.2431 81.078 51.1109 81.1305 51.1109C81.7863 51.1109 82.652 51.1109 83.7276 51.1109C84.7769 51.1109 85.9443 51.1241 87.2297 51.1505C88.5151 51.1505 89.8661 51.1505 91.2827 51.1505C92.7255 51.1505 94.1683 51.1505 95.6112 51.1505V51.1109H95.6505C95.6505 51.1109 95.6767 51.1241 95.7292 51.1505C96.9097 51.1505 98.0639 51.1638 99.192 51.1902C100.32 51.1902 101.369 51.1902 102.34 51.1902C103.337 51.1902 104.242 51.1902 105.055 51.1902C105.868 51.1902 106.55 51.1902 107.101 51.1902C107.206 51.1902 107.311 51.2696 107.416 51.4283C107.547 51.5869 107.639 51.6927 107.691 51.7456C107.875 51.9837 108.046 52.2217 108.203 52.4598C108.387 52.6978 108.57 52.9491 108.754 53.2136C108.911 53.4781 109.069 53.7426 109.226 54.007C109.41 54.2715 109.567 54.536 109.698 54.8005ZM89.1972 67.2977C89.853 67.5093 90.4301 67.4961 90.9285 67.2581C91.4532 66.9936 91.9254 66.6365 92.3451 66.1869C92.7649 65.7372 93.1321 65.2347 93.4469 64.6793C93.788 64.0974 94.0896 63.5684 94.352 63.0923C94.5618 62.722 94.7717 62.3385 94.9816 61.9418C95.2177 61.545 95.4669 61.1615 95.7292 60.7912C95.703 60.6325 95.6899 60.4739 95.6899 60.3152C95.6899 60.1565 95.6899 59.9978 95.6899 59.8391V59.6804C95.2964 59.5746 94.8897 59.5481 94.47 59.601C94.0765 59.6275 93.683 59.7068 93.2895 59.8391C92.0041 60.2094 90.9023 60.8838 89.9842 61.8624C89.5382 62.3121 89.1709 62.8146 88.8824 63.37C88.5938 63.899 88.4364 64.4677 88.4102 65.076C88.4102 65.7108 88.4889 66.3191 88.6463 66.901C88.6463 66.9539 88.6594 67.0068 88.6856 67.0597C88.8955 67.1655 89.066 67.2448 89.1972 67.2977ZM95.6899 55.5146H93.0534C93.4469 55.6733 93.788 55.8982 94.0765 56.1891C94.3651 56.48 94.6405 56.7974 94.9029 57.1413C95.034 57.3264 95.1652 57.5116 95.2964 57.6967C95.4275 57.8554 95.5587 58.0273 95.6899 58.2125V55.5146Z" fill="#056ABB"/>
</svg>
